<?xml version="1.0" encoding="UTF-8" standalone="no"?>
<!-- Created with Inkscape (http://www.inkscape.org/) -->

<svg
   xmlns:dc="http://purl.org/dc/elements/1.1/"
   xmlns:cc="http://creativecommons.org/ns#"
   xmlns:rdf="http://www.w3.org/1999/02/22-rdf-syntax-ns#"
   xmlns:svg="http://www.w3.org/2000/svg"
   xmlns="http://www.w3.org/2000/svg"
   xmlns:sodipodi="http://sodipodi.sourceforge.net/DTD/sodipodi-0.dtd"
   xmlns:inkscape="http://www.inkscape.org/namespaces/inkscape"
   width="2160"
   height="1620"
   id="svg2"
   version="1.1"
   inkscape:version="0.48.4 r9939"
   sodipodi:docname="Cork Discs.svg">
  <defs
     id="defs4" />
  <sodipodi:namedview
     id="base"
     pagecolor="#ffffff"
     bordercolor="#666666"
     borderopacity="1.0"
     inkscape:pageopacity="0.0"
     inkscape:pageshadow="2"
     inkscape:zoom="0.35"
     inkscape:cx="851.49789"
     inkscape:cy="1578.6415"
     inkscape:document-units="mm"
     inkscape:current-layer="layer1"
     showgrid="false"
     units="in"
     inkscape:window-width="2560"
     inkscape:window-height="1537"
     inkscape:window-x="1912"
     inkscape:window-y="-8"
     inkscape:window-maximized="1" />
  <metadata
     id="metadata7">
    <rdf:RDF>
      <cc:Work
         rdf:about="">
        <dc:format>image/svg+xml</dc:format>
        <dc:type
           rdf:resource="http://purl.org/dc/dcmitype/StillImage" />
        <dc:title />
      </cc:Work>
    </rdf:RDF>
  </metadata>
  <g
     inkscape:label="Layer 1"
     inkscape:groupmode="layer"
     id="layer1"
     transform="translate(0,567.64025)">
    <path
       sodipodi:type="arc"
       style="fill:none;stroke:#000000;stroke-width:0.05905556;stroke-miterlimit:4;stroke-opacity:1;stroke-dasharray:none"
       id="path2987"
       sodipodi:cx="122.14286"
       sodipodi:cy="145.57646"
       sodipodi:rx="41.785713"
       sodipodi:ry="41.785713"
       d="m 163.92857,145.57646 c 0,23.07761 -18.7081,41.78571 -41.78571,41.78571 -23.077612,0 -41.785713,-18.7081 -41.785713,-41.78571 0,-23.07761 18.708101,-41.78571 41.785713,-41.78571 23.07761,0 41.78571,18.7081 41.78571,41.78571 z"
       transform="matrix(0.42335214,0,0,0.42330813,-33.992905,-611.51322)" />
    <path
       sodipodi:type="arc"
       style="fill:none;stroke:#000000;stroke-width:0.05905556;stroke-miterlimit:4;stroke-opacity:1;stroke-dasharray:none"
       id="path2987-1"
       sodipodi:cx="122.14286"
       sodipodi:cy="145.57646"
       sodipodi:rx="41.785713"
       sodipodi:ry="41.785713"
       d="m 163.92857,145.57646 c 0,23.07761 -18.7081,41.78571 -41.78571,41.78571 -23.077612,0 -41.785713,-18.7081 -41.785713,-41.78571 0,-23.07761 18.708101,-41.78571 41.785713,-41.78571 23.07761,0 41.78571,18.7081 41.78571,41.78571 z"
       transform="matrix(0.42335214,0,0,0.42330813,37.017379,-611.51322)" />
    <path
       sodipodi:type="arc"
       style="fill:none;stroke:#000000;stroke-width:0.05905556;stroke-miterlimit:4;stroke-opacity:1;stroke-dasharray:none"
       id="path2987-7"
       sodipodi:cx="122.14286"
       sodipodi:cy="145.57646"
       sodipodi:rx="41.785713"
       sodipodi:ry="41.785713"
       d="m 163.92857,145.57646 c 0,23.07761 -18.7081,41.78571 -41.78571,41.78571 -23.077612,0 -41.785713,-18.7081 -41.785713,-41.78571 0,-23.07761 18.708101,-41.78571 41.785713,-41.78571 23.07761,0 41.78571,18.7081 41.78571,41.78571 z"
       transform="matrix(0.42335214,0,0,0.42330813,1.5122372,-611.51322)" />
    <path
       sodipodi:type="arc"
       style="fill:none;stroke:#000000;stroke-width:0.04551709;stroke-miterlimit:4;stroke-opacity:1;stroke-dasharray:none"
       id="path2987-4"
       sodipodi:cx="122.14286"
       sodipodi:cy="145.57646"
       sodipodi:rx="41.785713"
       sodipodi:ry="41.785713"
       d="m 163.92857,145.57646 c 0,23.07761 -18.7081,41.78571 -41.78571,41.78571 -23.077612,0 -41.785713,-18.7081 -41.785713,-41.78571 0,-23.07761 18.708101,-41.78571 41.785713,-41.78571 23.07761,0 41.78571,18.7081 41.78571,41.78571 z"
       transform="matrix(0.54924817,0,0,0.54924041,-44.098577,-589.08236)" />
    <path
       sodipodi:type="arc"
       style="fill:none;stroke:#000000;stroke-width:0.04551709;stroke-miterlimit:4;stroke-opacity:1;stroke-dasharray:none"
       id="path2987-1-0"
       sodipodi:cx="122.14286"
       sodipodi:cy="145.57646"
       sodipodi:rx="41.785713"
       sodipodi:ry="41.785713"
       d="m 163.92857,145.57646 c 0,23.07761 -18.7081,41.78571 -41.78571,41.78571 -23.077612,0 -41.785713,-18.7081 -41.785713,-41.78571 0,-23.07761 18.708101,-41.78571 41.785713,-41.78571 23.07761,0 41.78571,18.7081 41.78571,41.78571 z"
       transform="matrix(0.54924817,0,0,0.54924041,48.028681,-589.08236)" />
    <path
       sodipodi:type="arc"
       style="fill:none;stroke:#000000;stroke-width:0.04551709;stroke-miterlimit:4;stroke-opacity:1;stroke-dasharray:none"
       id="path2987-7-9"
       sodipodi:cx="122.14286"
       sodipodi:cy="145.57646"
       sodipodi:rx="41.785713"
       sodipodi:ry="41.785713"
       d="m 163.92857,145.57646 c 0,23.07761 -18.7081,41.78571 -41.78571,41.78571 -23.077612,0 -41.785713,-18.7081 -41.785713,-41.78571 0,-23.07761 18.708101,-41.78571 41.785713,-41.78571 23.07761,0 41.78571,18.7081 41.78571,41.78571 z"
       transform="matrix(0.54924817,0,0,0.54924041,1.9650497,-589.08236)" />
    <path
       sodipodi:type="arc"
       style="fill:none;stroke:#000000;stroke-width:0.00835832;stroke-miterlimit:4;stroke-opacity:1;stroke-dasharray:none"
       id="path2987-7-9-2"
       sodipodi:cx="122.14286"
       sodipodi:cy="145.57646"
       sodipodi:rx="41.785713"
       sodipodi:ry="41.785713"
       d="m 163.92857,145.57646 a 41.785713,41.785713 0 1 1 -83.571423,0 41.785713,41.785713 0 1 1 83.571423,0 z"
       transform="matrix(10.598141,0,0,10.598141,-851.59894,-1667.5667)" />
  </g>
</svg>
