<?xml version="1.0" encoding="UTF-8" standalone="no"?>
<!-- Created with Inkscape (http://www.inkscape.org/) -->

<svg
   xmlns:dc="http://purl.org/dc/elements/1.1/"
   xmlns:cc="http://creativecommons.org/ns#"
   xmlns:rdf="http://www.w3.org/1999/02/22-rdf-syntax-ns#"
   xmlns:svg="http://www.w3.org/2000/svg"
   xmlns="http://www.w3.org/2000/svg"
   xmlns:sodipodi="http://sodipodi.sourceforge.net/DTD/sodipodi-0.dtd"
   xmlns:inkscape="http://www.inkscape.org/namespaces/inkscape"
   id="svg3295"
   version="1.1"
   inkscape:version="0.48.4 r9939"
   width="2160"
   height="1620"
   sodipodi:docname="Front Panel.svg">
  <metadata
     id="metadata3301">
    <rdf:RDF>
      <cc:Work
         rdf:about="">
        <dc:format>image/svg+xml</dc:format>
        <dc:type
           rdf:resource="http://purl.org/dc/dcmitype/StillImage" />
        <dc:title />
      </cc:Work>
    </rdf:RDF>
  </metadata>
  <defs
     id="defs3299" />
  <sodipodi:namedview
     pagecolor="#ffffff"
     bordercolor="#666666"
     borderopacity="1"
     objecttolerance="10"
     gridtolerance="10"
     guidetolerance="10"
     inkscape:pageopacity="0"
     inkscape:pageshadow="2"
     inkscape:window-width="1920"
     inkscape:window-height="1017"
     id="namedview3297"
     showgrid="false"
     fit-margin-top="0"
     fit-margin-left="0"
     fit-margin-right="0"
     fit-margin-bottom="0"
     inkscape:document-units="mm"
     inkscape:zoom="0.80089516"
     inkscape:cx="605.23273"
     inkscape:cy="281.74998"
     inkscape:window-x="1912"
     inkscape:window-y="-8"
     inkscape:window-maximized="1"
     inkscape:current-layer="layer6"
     units="in" />
  <g
     inkscape:groupmode="layer"
     id="layer5"
     inkscape:label="Guides"
     style="display:inline" />
  <g
     inkscape:groupmode="layer"
     id="layer6"
     inkscape:label="Items"
     style="display:inline">
    <path
       style="fill:none;stroke:#000000;stroke-width:0.025;stroke-miterlimit:4;stroke-opacity:1;stroke-dasharray:none"
       d="m 221.95402,1543.1894 0,-73.6875 130.84375,0 -0.9375,73.75 z"
       id="path19977"
       inkscape:connector-curvature="0" />
    <path
       style="fill:none;stroke:#000000;stroke-width:0.025;stroke-miterlimit:4;stroke-opacity:1;stroke-dasharray:none"
       d="m 828.16911,1417.8387 c 14.38332,0 26.0625,11.6792 26.0625,26.0625 0,14.3833 -11.67918,26.0312 -26.0625,26.0312 -14.38332,0 -26.03125,-11.6479 -26.03125,-26.0312 0,-14.3833 11.64793,-26.0625 26.03125,-26.0625 z"
       id="path19975"
       inkscape:connector-curvature="0" />
    <path
       style="fill:none;stroke:#000000;stroke-width:0.025;stroke-miterlimit:4;stroke-opacity:1;stroke-dasharray:none"
       d="m 968.51978,1451.3209 97.75012,0 0,69.0937 -97.84387,-1 0.0937,-68.0937 z"
       id="path19973"
       inkscape:connector-curvature="0" />
    <path
       style="fill:none;stroke:#000000;stroke-width:0.025;stroke-miterlimit:4;stroke-opacity:1;stroke-dasharray:none"
       d="m 828.16904,1491.854 c 14.38332,0 26.0625,11.6792 26.0625,26.0625 0,14.3833 -11.67918,26.0312 -26.0625,26.0312 -14.38332,0 -26.03125,-11.6479 -26.03125,-26.0312 0,-14.3833 11.64793,-26.0625 26.03125,-26.0625 z"
       id="path19971"
       inkscape:connector-curvature="0" />
    <path
       style="fill:none;stroke:#000000;stroke-width:0.025;stroke-miterlimit:4;stroke-opacity:1;stroke-dasharray:none"
       d="m 411.48243,1480.3457 c 14.38332,0 26.0625,11.6479 26.0625,26.0313 0,14.3833 -11.67918,26.0312 -26.0625,26.0312 -14.38332,0 -26.03125,-11.6479 -26.03125,-26.0312 0,-14.3833 11.64793,-26.0313 26.03125,-26.0313 z"
       id="path3333"
       inkscape:connector-curvature="0" />
    <text
       sodipodi:linespacing="125%"
       id="text4127"
       y="1572.5643"
       x="742.07867"
       style="font-size:40px;font-style:normal;font-weight:normal;line-height:125%;letter-spacing:0px;word-spacing:0px;fill:#ffffff;fill-opacity:1;stroke:#000000;stroke-width:0.025;stroke-miterlimit:4;stroke-opacity:1;stroke-dasharray:none;font-family:Sans"
       xml:space="preserve"><tspan
         y="1572.5643"
         x="742.07867"
         id="tspan4129"
         sodipodi:role="line" /></text>
    <text
       sodipodi:linespacing="125%"
       id="text3057"
       y="1451.4386"
       x="283.43286"
       style="font-size:40px;font-style:normal;font-variant:normal;font-weight:normal;font-stretch:normal;line-height:125%;letter-spacing:0px;word-spacing:0px;fill:#000000;fill-opacity:1;stroke:none;font-family:Ringbearer;-inkscape-font-specification:Ringbearer"
       xml:space="preserve"><tspan
         style="font-style:normal;font-variant:normal;font-weight:normal;font-stretch:normal;font-family:Fontin Sans SC;-inkscape-font-specification:Fontin Sans SC"
         y="1451.4386"
         x="283.43286"
         id="tspan3059"
         sodipodi:role="line">Main</tspan></text>
    <g
       id="g3891"
       transform="translate(21.905276,0)">
      <text
         xml:space="preserve"
         style="font-size:27.21047974px;font-style:normal;font-variant:normal;font-weight:normal;font-stretch:normal;line-height:125%;letter-spacing:0px;word-spacing:0px;fill:#000000;fill-opacity:1;stroke:none;font-family:Ringbearer;-inkscape-font-specification:Ringbearer"
         x="631.45081"
         y="1386.8325"
         id="text3061"
         sodipodi:linespacing="125%"><tspan
           sodipodi:role="line"
           id="tspan3063"
           x="631.45081"
           y="1386.8325"
           style="font-style:normal;font-variant:normal;font-weight:normal;font-stretch:normal;font-family:Fontin Sans SC;-inkscape-font-specification:Fontin Sans SC">Printer</tspan></text>
      <text
         xml:space="preserve"
         style="font-size:27.21047974px;font-style:normal;font-variant:normal;font-weight:normal;font-stretch:normal;line-height:125%;letter-spacing:0px;word-spacing:0px;fill:#000000;fill-opacity:1;stroke:none;font-family:Ringbearer;-inkscape-font-specification:Ringbearer"
         x="631.633"
         y="1592.5486"
         id="text3065"
         sodipodi:linespacing="125%"><tspan
           sodipodi:role="line"
           id="tspan3067"
           x="631.633"
           y="1592.5486"
           style="font-style:normal;font-variant:normal;font-weight:normal;font-stretch:normal;font-family:Fontin Sans SC;-inkscape-font-specification:Fontin Sans SC">Arduino</tspan></text>
    </g>
    <text
       sodipodi:linespacing="125%"
       id="text3069"
       y="1410.4562"
       x="803.85901"
       style="font-size:10.90593338px;font-style:normal;font-variant:normal;font-weight:normal;font-stretch:normal;line-height:125%;letter-spacing:0px;word-spacing:0px;fill:#000000;fill-opacity:1;stroke:none;font-family:Ringbearer;-inkscape-font-specification:Ringbearer"
       xml:space="preserve"><tspan
         style="font-style:normal;font-variant:normal;font-weight:normal;font-stretch:normal;font-family:Fontin Sans SC;-inkscape-font-specification:Fontin Sans SC"
         y="1410.4562"
         x="803.85901"
         id="tspan3071"
         sodipodi:role="line">Brainwave</tspan></text>
    <text
       sodipodi:linespacing="125%"
       id="text3073"
       y="1411.4155"
       x="897.104"
       style="font-size:10.90593338px;font-style:normal;font-variant:normal;font-weight:normal;font-stretch:normal;line-height:125%;letter-spacing:0px;word-spacing:0px;fill:#000000;fill-opacity:1;stroke:none;font-family:Ringbearer;-inkscape-font-specification:Ringbearer"
       xml:space="preserve"><tspan
         style="font-style:normal;font-variant:normal;font-weight:normal;font-stretch:normal;font-family:Fontin Sans SC;-inkscape-font-specification:Fontin Sans SC"
         y="1411.4155"
         x="897.104"
         id="tspan3075"
         sodipodi:role="line">Bed</tspan></text>
    <text
       sodipodi:linespacing="125%"
       id="text3077"
       y="1556.0751"
       x="803.28796"
       style="font-size:10.90593338px;font-style:normal;font-variant:normal;font-weight:normal;font-stretch:normal;line-height:125%;letter-spacing:0px;word-spacing:0px;fill:#000000;fill-opacity:1;stroke:none;font-family:Ringbearer;-inkscape-font-specification:Ringbearer"
       xml:space="preserve"><tspan
         style="font-style:normal;font-variant:normal;font-weight:normal;font-stretch:normal;font-family:Fontin Sans SC;-inkscape-font-specification:Fontin Sans SC"
         y="1556.0751"
         x="803.28796"
         id="tspan3079"
         sodipodi:role="line">Neopixel</tspan></text>
    <path
       style="fill:none;stroke:#000000;stroke-width:0.02874744;stroke-miterlimit:4;stroke-opacity:1;stroke-dasharray:none"
       d="m 677.83791,1417.555 77.83512,0 0,53.0176 -77.83512,0 z"
       id="rect3979"
       inkscape:connector-curvature="0" />
    <path
       style="fill:none;stroke:#000000;stroke-width:0.02874748;stroke-miterlimit:4;stroke-opacity:1;stroke-dasharray:none"
       d="m 677.83791,1492.3498 77.83512,0 0,53.0176 -77.83512,0 z"
       id="rect3979-1"
       inkscape:connector-curvature="0" />
    <path
       inkscape:connector-curvature="0"
       style="fill:none;stroke:#000000;stroke-width:0.02534651;stroke-miterlimit:4;stroke-opacity:1;stroke-dasharray:none"
       d="m 595.05713,1413.9212 c 14.28917,0 25.89191,12.0843 25.89191,26.9665 0,14.8822 -11.60274,26.9342 -25.89191,26.9342 -14.28917,0 -25.86086,-12.052 -25.86086,-26.9342 0,-14.8822 11.57169,-26.9665 25.86086,-26.9665 z"
       id="path19975-5" />
    <path
       inkscape:connector-curvature="0"
       style="fill:none;stroke:#000000;stroke-width:0.02534651;stroke-miterlimit:4;stroke-opacity:1;stroke-dasharray:none"
       d="m 510.41415,1413.9212 c 14.28917,0 25.89191,12.0843 25.89191,26.9665 0,14.8822 -11.60274,26.9342 -25.89191,26.9342 -14.28917,0 -25.86087,-12.052 -25.86087,-26.9342 0,-14.8822 11.5717,-26.9665 25.86087,-26.9665 z"
       id="path19975-7" />
    <path
       inkscape:connector-curvature="0"
       style="fill:none;stroke:#000000;stroke-width:0.02534651;stroke-miterlimit:4;stroke-opacity:1;stroke-dasharray:none"
       d="m 510.41415,1490.8247 c 14.28917,0 25.89191,12.0843 25.89191,26.9665 0,14.8822 -11.60274,26.9342 -25.89191,26.9342 -14.28917,0 -25.86087,-12.052 -25.86087,-26.9342 0,-14.8822 11.5717,-26.9665 25.86087,-26.9665 z"
       id="path19975-7-1" />
    <path
       inkscape:connector-curvature="0"
       style="fill:none;stroke:#000000;stroke-width:0.08858268;stroke-miterlimit:4;stroke-opacity:1"
       d="m 0.0625,1344.5001 0,59.5937 10.875,0 0,0.062 c 5.825639,0.052 10.53125,4.7825 10.53125,10.625 0,5.8746 -4.754925,10.6563 -10.625,10.6563 -0.517838,0 -1.033283,-0.053 -1.53125,-0.125 l -9.25,0 0,194.625 1276.6876,0 0,-275.4375 -1276.6876,0 z"
       id="rect7847" />
    <text
       xml:space="preserve"
       style="font-size:40px;font-style:normal;font-weight:normal;line-height:125%;letter-spacing:0px;word-spacing:0px;fill:#000000;fill-opacity:1;stroke:none;font-family:Sans"
       x="16.290888"
       y="1606.1404"
       id="text3023"
       sodipodi:linespacing="125%"><tspan
         sodipodi:role="line"
         id="tspan3025"
         x="16.290888"
         y="1606.1404"
         style="font-size:6px">Panel Rev 0.00.4</tspan></text>
    <path
       style="fill:none;stroke:#000000;stroke-width:0.025;stroke-miterlimit:4;stroke-opacity:1;stroke-dasharray:none;display:inline"
       d="m 904.95418,1417.8387 c 14.38332,0 26.0625,11.6792 26.0625,26.0625 0,14.3833 -11.67918,26.0312 -26.0625,26.0312 -14.38332,0 -26.03125,-11.6479 -26.03125,-26.0312 0,-14.3833 11.64793,-26.0625 26.03125,-26.0625 z"
       id="path19975-1"
       inkscape:connector-curvature="0" />
    <path
       style="fill:none;stroke:#000000;stroke-width:0.00506776;stroke-miterlimit:4;stroke-opacity:1;stroke-dasharray:none;display:inline"
       d="m 192.0815,1370.4583 c 2.90242,0 5.25918,2.3719 5.25918,5.3009 0,2.9289 -2.35676,5.3008 -5.25918,5.3008 -2.90243,0 -5.25288,-2.3719 -5.25288,-5.3008 0,-2.9289 2.35045,-5.3009 5.25288,-5.3009 z"
       id="path3333-4"
       inkscape:connector-curvature="0" />
    <path
       style="fill:none;stroke:#000000;stroke-width:0.00506776;stroke-miterlimit:4;stroke-opacity:1;stroke-dasharray:none;display:inline"
       d="m 1094.8933,1370.4583 c 2.9025,0 5.2592,2.3719 5.2592,5.3009 0,2.9289 -2.3567,5.3008 -5.2592,5.3008 -2.9024,0 -5.2529,-2.3719 -5.2529,-5.3008 0,-2.9289 2.3505,-5.3009 5.2529,-5.3009 z"
       id="path3333-4-0"
       inkscape:connector-curvature="0" />
    <path
       style="fill:none;stroke:#000000;stroke-width:0.00506776;stroke-miterlimit:4;stroke-opacity:1;stroke-dasharray:none;display:inline"
       d="m 192.0815,1582.2135 c 2.90242,0 5.25918,2.3719 5.25918,5.3009 0,2.9289 -2.35676,5.3008 -5.25918,5.3008 -2.90243,0 -5.25288,-2.3719 -5.25288,-5.3008 0,-2.9289 2.35045,-5.3009 5.25288,-5.3009 z"
       id="path3333-4-9"
       inkscape:connector-curvature="0" />
    <path
       style="fill:none;stroke:#000000;stroke-width:0.00506776;stroke-miterlimit:4;stroke-opacity:1;stroke-dasharray:none;display:inline"
       d="m 1094.8933,1582.2135 c 2.9025,0 5.2592,2.3719 5.2592,5.3009 0,2.9289 -2.3567,5.3008 -5.2592,5.3008 -2.9024,0 -5.2529,-2.3719 -5.2529,-5.3008 0,-2.9289 2.3505,-5.3009 5.2529,-5.3009 z"
       id="path3333-4-0-4"
       inkscape:connector-curvature="0" />
    <path
       style="fill:none;stroke:#000000;stroke-width:0.00424033;stroke-miterlimit:4;stroke-opacity:1;stroke-dasharray:none;display:inline"
       d="m 667.1124,1439.6465 c 2.44,0 4.4212,1.9807 4.4212,4.4199 0,2.4393 -1.9812,4.4147 -4.4212,4.4147 -2.4399,0 -4.4158,-1.9754 -4.4158,-4.4147 0,-2.4392 1.9759,-4.4199 4.4158,-4.4199 z"
       id="path19975-8"
       inkscape:connector-curvature="0" />
    <path
       style="fill:none;stroke:#000000;stroke-width:0.00424033;stroke-miterlimit:4;stroke-opacity:1;stroke-dasharray:none;display:inline"
       d="m 667.1124,1514.4413 c 2.44,0 4.4212,1.9807 4.4212,4.4199 0,2.4393 -1.9812,4.4147 -4.4212,4.4147 -2.4399,0 -4.4158,-1.9754 -4.4158,-4.4147 0,-2.4392 1.9759,-4.4199 4.4158,-4.4199 z"
       id="path19975-8-2"
       inkscape:connector-curvature="0" />
    <path
       style="fill:none;stroke:#000000;stroke-width:0.00424033;stroke-miterlimit:4;stroke-opacity:1;stroke-dasharray:none;display:inline"
       d="m 766.46674,1439.6465 c 2.44,0 4.4212,1.9807 4.4212,4.4199 0,2.4393 -1.9812,4.4147 -4.4212,4.4147 -2.4399,0 -4.4158,-1.9754 -4.4158,-4.4147 0,-2.4392 1.9759,-4.4199 4.4158,-4.4199 z"
       id="path19975-8-4"
       inkscape:connector-curvature="0" />
    <path
       style="fill:none;stroke:#000000;stroke-width:0.00424033;stroke-miterlimit:4;stroke-opacity:1;stroke-dasharray:none;display:inline"
       d="m 766.46674,1514.4413 c 2.44,0 4.4212,1.9807 4.4212,4.4199 0,2.4393 -1.9812,4.4147 -4.4212,4.4147 -2.4399,0 -4.4158,-1.9754 -4.4158,-4.4147 0,-2.4392 1.9759,-4.4199 4.4158,-4.4199 z"
       id="path19975-8-4-5"
       inkscape:connector-curvature="0" />
    <text
       sodipodi:linespacing="125%"
       id="text4127-8"
       y="1228.3848"
       x="635.57721"
       style="font-size:40px;font-style:normal;font-weight:normal;line-height:125%;letter-spacing:0px;word-spacing:0px;fill:#ffffff;fill-opacity:1;stroke:#000000;stroke-width:0.025;stroke-miterlimit:4;stroke-opacity:1;stroke-dasharray:none;font-family:Sans"
       xml:space="preserve"><tspan
         y="1228.3848"
         x="635.57721"
         id="tspan4129-2"
         sodipodi:role="line" /></text>
    <path
       inkscape:connector-curvature="0"
       style="fill:none;stroke:#000000;stroke-width:0.08858268;stroke-miterlimit:4;stroke-opacity:1"
       d="m 0.0625,1068.9381 0,59.5937 10.875,0 0,0.062 c 5.82564,0.052 10.53125,4.7826 10.53125,10.625 0,5.8746 -4.75493,10.6563 -10.625,10.6563 -0.51784,0 -1.03328,-0.053 -1.53125,-0.125 l -9.25,0 0,194.625 1276.6876,0 0,-275.4375 -1276.6876,0 z"
       id="rect7847-5" />
    <path
       inkscape:connector-curvature="0"
       style="fill:none;stroke:#000000;stroke-width:0.08858268;stroke-miterlimit:4;stroke-opacity:1;display:inline"
       d="m 0.0625,793.3756 0,59.5937 10.875,0 0,0.062 c 5.8257,0.052 10.5313,4.7826 10.5313,10.625 0,5.8746 -4.7549,10.6563 -10.625,10.6563 -0.5179,0 -1.0333,-0.053 -1.5313,-0.125 l -9.25,0 0,194.625 1276.6876,0 0,-275.4375 -1276.6876,0 z"
       id="rect7847-5-8" />
    <path
       style="fill:none;stroke:#000000;stroke-width:0.00506776;stroke-miterlimit:4;stroke-opacity:1;stroke-dasharray:none;display:inline"
       d="m 951.9655,1481.8234 c 2.90242,0 5.25918,2.3719 5.25918,5.3009 0,2.9289 -2.35676,5.3008 -5.25918,5.3008 -2.90243,0 -5.25288,-2.3719 -5.25288,-5.3008 0,-2.9289 2.35045,-5.3009 5.25288,-5.3009 z"
       id="path3333-4-9-6"
       inkscape:connector-curvature="0" />
    <path
       style="fill:none;stroke:#000000;stroke-width:0.00506776;stroke-miterlimit:4;stroke-opacity:1;stroke-dasharray:none;display:inline"
       d="m 1081.1025,1481.8234 c 2.9024,0 5.2591,2.3719 5.2591,5.3009 0,2.9289 -2.3567,5.3008 -5.2591,5.3008 -2.9025,0 -5.2529,-2.3719 -5.2529,-5.3008 0,-2.9289 2.3504,-5.3009 5.2529,-5.3009 z"
       id="path3333-4-9-0"
       inkscape:connector-curvature="0" />
    <rect
       style="opacity:1;fill:none;stroke:#000000;stroke-width:1.06299213;stroke-miterlimit:4;stroke-opacity:1;stroke-dasharray:none"
       id="rect3887"
       width="460.40723"
       height="244.39894"
       x="477.75424"
       y="1359.2057"
       ry="20.831596" />
    <path
       style="fill:none;stroke:#000000;stroke-width:0.88937008;stroke-linecap:butt;stroke-linejoin:miter;stroke-opacity:1;stroke-miterlimit:4;stroke-dasharray:none"
       d="m 476.9663,1482.6537 460.73446,0"
       id="path3889"
       inkscape:connector-curvature="0" />
  </g>
</svg>
