<?xml version="1.0" encoding="UTF-8" standalone="no"?>
<!-- Created with Inkscape (http://www.inkscape.org/) -->

<svg
   xmlns:dc="http://purl.org/dc/elements/1.1/"
   xmlns:cc="http://creativecommons.org/ns#"
   xmlns:rdf="http://www.w3.org/1999/02/22-rdf-syntax-ns#"
   xmlns:svg="http://www.w3.org/2000/svg"
   xmlns="http://www.w3.org/2000/svg"
   xmlns:sodipodi="http://sodipodi.sourceforge.net/DTD/sodipodi-0.dtd"
   xmlns:inkscape="http://www.inkscape.org/namespaces/inkscape"
   id="svg3295"
   version="1.1"
   inkscape:version="0.48.4 r9939"
   width="2160"
   height="1620"
   sodipodi:docname="KosselPanel.svg">
  <metadata
     id="metadata3301">
    <rdf:RDF>
      <cc:Work
         rdf:about="">
        <dc:format>image/svg+xml</dc:format>
        <dc:type
           rdf:resource="http://purl.org/dc/dcmitype/StillImage" />
        <dc:title></dc:title>
      </cc:Work>
    </rdf:RDF>
  </metadata>
  <defs
     id="defs3299" />
  <sodipodi:namedview
     pagecolor="#ffffff"
     bordercolor="#666666"
     borderopacity="1"
     objecttolerance="10"
     gridtolerance="10"
     guidetolerance="10"
     inkscape:pageopacity="0"
     inkscape:pageshadow="2"
     inkscape:window-width="1280"
     inkscape:window-height="660"
     id="namedview3297"
     showgrid="false"
     fit-margin-top="0"
     fit-margin-left="0"
     fit-margin-right="0"
     fit-margin-bottom="0"
     inkscape:document-units="mm"
     inkscape:zoom="3.2035806"
     inkscape:cx="749.89921"
     inkscape:cy="1506.0341"
     inkscape:window-x="-8"
     inkscape:window-y="-8"
     inkscape:window-maximized="1"
     inkscape:current-layer="layer6"
     units="in" />
  <g
     inkscape:groupmode="layer"
     id="layer5"
     inkscape:label="Guides"
     style="display:inline" />
  <g
     inkscape:groupmode="layer"
     id="layer6"
     inkscape:label="Items"
     style="display:inline">
    <path
       style="fill:none;stroke:#000000;stroke-width:0.025;stroke-miterlimit:4;stroke-opacity:1;stroke-dasharray:none"
       d="m 222.42277,199.90813 0,-73.6875 130.84375,0 -0.9375,73.75 z"
       id="path19977"
       inkscape:connector-curvature="0" />
    <path
       style="fill:none;stroke:#000000;stroke-width:0.025;stroke-miterlimit:4;stroke-opacity:1;stroke-dasharray:none"
       d="m 828.63786,74.557433 c 14.38332,0 26.0625,11.6792 26.0625,26.062497 0,14.3833 -11.67918,26.0312 -26.0625,26.0312 -14.38332,0 -26.03125,-11.6479 -26.03125,-26.0312 0,-14.383297 11.64793,-26.062497 26.03125,-26.062497 z"
       id="path19975"
       inkscape:connector-curvature="0" />
    <path
       style="fill:none;stroke:#000000;stroke-width:0.025;stroke-miterlimit:4;stroke-opacity:1;stroke-dasharray:none"
       d="m 968.98853,108.03963 97.75007,0 0,69.0937 -97.84382,-1 0.0937,-68.0937 z"
       id="path19973"
       inkscape:connector-curvature="0" />
    <path
       style="fill:none;stroke:#000000;stroke-width:0.025;stroke-miterlimit:4;stroke-opacity:1;stroke-dasharray:none"
       d="m 828.63779,148.57273 c 14.38332,0 26.0625,11.6792 26.0625,26.0625 0,14.3833 -11.67918,26.0312 -26.0625,26.0312 -14.38332,0 -26.03125,-11.6479 -26.03125,-26.0312 0,-14.3833 11.64793,-26.0625 26.03125,-26.0625 z"
       id="path19971"
       inkscape:connector-curvature="0" />
    <path
       style="fill:none;stroke:#000000;stroke-width:0.025;stroke-miterlimit:4;stroke-opacity:1;stroke-dasharray:none"
       d="m 411.95118,137.06443 c 14.38332,0 26.0625,11.6479 26.0625,26.0313 0,14.3833 -11.67918,26.0312 -26.0625,26.0312 -14.38332,0 -26.03125,-11.6479 -26.03125,-26.0312 0,-14.3833 11.64793,-26.0313 26.03125,-26.0313 z"
       id="path3333"
       inkscape:connector-curvature="0" />
    <text
       sodipodi:linespacing="125%"
       id="text4127"
       y="229.283"
       x="742.54742"
       style="font-size:40px;font-style:normal;font-weight:normal;line-height:125%;letter-spacing:0px;word-spacing:0px;fill:#ffffff;fill-opacity:1;stroke:#000000;stroke-width:0.025;stroke-miterlimit:4;stroke-opacity:1;stroke-dasharray:none;font-family:Sans"
       xml:space="preserve"><tspan
         y="229.283"
         x="742.54742"
         id="tspan4129"
         sodipodi:role="line" /></text>
    <g
       id="g3972"
       transform="matrix(0.75,0,0,0.75,83.102395,42.814333)"
       style="stroke:none">
      <g
         transform="translate(-259.21529,0.6875)"
         id="text4123"
         style="font-size:40px;font-style:normal;font-variant:normal;font-weight:bold;font-stretch:normal;text-align:start;line-height:125%;letter-spacing:0px;word-spacing:0px;writing-mode:lr-tb;text-anchor:start;fill:#000000;fill-opacity:1;stroke:none;font-family:Ringbearer;-inkscape-font-specification:Ringbearer Bold">
        <path
           id="path3845"
           style="fill:#000000;fill-opacity:1;stroke:none"
           d="m 576.63635,52.50956 c -0.42809,0.12861 -0.8769,0.279977 -1.34643,0.454101 -0.90661,0.41751 -1.53202,0.924508 -1.87622,1.520996 -0.20267,0.354032 -0.23197,1.11575 -0.0879,2.285157 0.003,0.01142 0.0415,0.09402 0.11474,0.247802 0.0732,0.153834 -0.0334,0.284856 -0.31982,0.393067 -0.28649,0.196965 -0.27469,0.575382 0.0354,1.135254 -0.10746,0.369489 -0.16117,0.750755 -0.16113,1.143798 l 0,3.255616 c -4e-5,8.33e-4 0.0252,0.03664 0.0757,0.107422 0.0504,0.07082 0.0899,0.161559 0.11841,0.272216 0.0236,0.130228 0.01,0.289733 -0.0409,0.478516 -0.0509,0.188821 -0.0763,0.311298 -0.0763,0.367432 l -0.42969,3.063964 c -0.28649,0.132665 -0.17744,0.683202 0.32715,1.651612 -0.0627,1.057955 -0.083,1.777762 -0.061,2.159424 -0.40043,1.756194 -0.45739,2.637134 -0.1709,2.642822 l 0.42968,4.327392 c -3e-5,0.714523 -0.0464,1.396081 -0.13916,2.044678 -0.10582,0.332847 -0.22749,0.812176 -0.36499,1.437988 -0.0977,0.745444 -0.10379,1.342367 -0.0183,1.790772 0.14076,0.382486 0.3023,0.992837 0.48462,1.831055 -0.0676,0.706377 -0.0826,1.622717 -0.0452,2.749023 0.12366,0.655105 0.60747,1.149896 1.45141,1.484375 0.36781,0.134271 0.9631,0.439853 1.78589,0.916748 0.15703,0.327141 0.14604,0.739127 -0.033,1.235962 -0.17907,0.496817 -0.50947,0.737092 -0.99121,0.720825 -0.75036,-0.06023 -1.5137,-0.12208 -2.29004,-0.185547 -1.3428,-0.102548 -2.2095,-0.147307 -2.6001,-0.134277 -0.0114,-9e-6 -0.0904,0.05736 -0.23681,0.172119 -0.14652,0.114737 -0.28649,0.17211 -0.41992,0.172119 l -2.7002,0 c -0.12616,-9e-6 -0.41038,0.02237 -0.85266,0.06714 -0.44233,0.04475 -0.80264,0.06713 -1.08093,0.06714 -0.81057,-10e-6 -1.50108,-0.211598 -2.07154,-0.634766 -0.0163,-0.553394 0.0594,-1.209725 0.22705,-1.968994 0.53709,-0.122077 1.11326,-0.334073 1.72852,-0.635986 0.39955,-0.344245 0.88783,-0.935878 1.46484,-1.774903 0.2311,-0.333663 0.33404,-0.947676 0.30884,-1.842041 -2e-5,-0.05453 -0.0385,-0.199791 -0.11535,-0.435791 -0.0769,-0.236005 -0.11539,-0.412193 -0.11536,-0.528564 l 0.42969,-2.738037 c 0.28643,0.50293 0.12408,-0.08545 -0.48706,-1.765137 -0.0383,-1.190589 -0.0383,-1.986893 0,-2.388916 0.12774,-1.245925 0.10658,-2.310784 -0.0635,-3.19458 -0.0342,-0.1066 -0.0131,-1.073803 0.0635,-2.901612 0.0512,-0.689278 0.25591,-1.701647 0.61401,-3.037109 -0.20266,0.232761 -0.47122,-1.367579 -0.80566,-4.801025 -0.0106,-0.243308 0.0459,-0.473207 0.16967,-0.689698 0.0561,0.446797 -0.0187,1.040872 -0.22461,1.782227 -0.48261,1.590999 -1.12469,3.873305 -1.92627,6.846924 -0.013,0.432953 -0.0916,1.086435 -0.23559,1.960449 -0.35566,0.860197 -0.78534,2.07683 -1.28906,3.649902 -3e-5,0.520839 -0.048,1.391199 -0.14405,2.611084 -0.31984,1.06771 -0.75401,2.559001 -1.30249,4.473877 -0.0887,0.884601 -0.33449,2.295732 -0.7373,4.233399 -0.18313,0.601393 -0.57294,1.455477 -1.16944,2.562256 -0.20997,0.07974 -0.40325,0.155834 -0.57983,0.228271 -0.50539,0.250642 -1.23944,0.329581 -2.20215,0.236816 -0.20102,-0.380867 -0.4118,-0.819913 -0.63232,-1.317138 -0.27427,-1.290697 -0.70721,-3.050542 -1.29883,-5.279541 -0.1937,-0.289716 -0.47243,-0.862632 -0.83618,-1.71875 0.0635,-0.624186 0.0521,-1.411132 -0.0342,-2.36084 -0.28484,-0.79671 -0.66286,-1.365964 -1.13403,-1.707764 0.0252,-0.406897 0.0378,-0.741776 0.0378,-1.004638 -10e-6,-1.494135 -0.39918,-2.646478 -1.19751,-3.457032 -0.10825,-0.464672 -0.247,-0.974519 -0.41626,-1.529541 -0.20835,-1.027007 -0.4887,-2.389311 -0.84107,-4.086914 -0.20671,-0.573716 -0.53549,-1.537257 -0.98632,-2.890625 -0.11395,-0.501285 -0.23724,-1.070946 -0.36988,-1.708984 -0.14242,-0.414207 -0.38209,-0.803204 -0.71899,-1.166992 -0.0415,-0.599753 -0.15707,-1.210104 -0.34668,-1.831055 0.27261,-0.0097 0.36335,0.679952 0.27222,2.069092 -0.0366,0.584328 0.008,1.494565 0.13427,2.730713 -0.15707,1.353368 -0.23438,1.984877 -0.23193,1.894531 l 0.42969,3.255615 c -10e-6,0.432954 -0.0212,2.006438 -0.0635,4.720459 -0.0383,2.070317 -0.0456,3.616133 -0.022,4.637451 0.0757,0.312502 0.18065,1.107586 0.31494,2.385254 -10e-6,1.02132 0.1005,2.524818 0.30151,4.510498 0.11393,0.619298 0.56965,1.142979 1.36719,1.571045 0.50211,0.237624 1.07746,0.599765 1.72607,1.086426 0.16275,0.677075 0.0688,1.246736 -0.28198,1.708984 -0.43946,0.212393 -1.0075,0.318594 -1.7041,0.318604 -0.28565,-1e-5 -1.26425,-0.08953 -2.93579,-0.268555 -0.24496,-0.02524 -0.59205,3.98e-4 -1.04126,0.0769 -0.6128,0.08951 -1.0079,0.140371 -1.1853,0.152587 -0.6364,0.03824 -1.66179,-0.03419 -3.07618,-0.217285 -0.34749,-0.461435 -0.52124,-0.914722 -0.52124,-1.359863 0,-0.424812 0.19735,-0.765388 0.59205,-1.021729 0.3304,-0.05372 0.74015,-0.188809 1.22924,-0.405273 0.27995,-0.183112 0.63558,-0.507005 1.0669,-0.97168 0.25065,-0.502121 0.42439,-1.104334 0.52124,-1.80664 0.0887,-0.676273 0.17781,-1.351728 0.26733,-2.026367 l 0,-2.596436 c 0,-0.952961 0.26733,-1.568601 0.802,-1.846924 -0.30436,-1.3387 -0.45654,-2.165929 -0.45654,-2.481689 l 0,-2.402344 -0.51758,-4.191895 0,-2.424316 c 0,-0.109035 0.0224,-0.246771 0.0671,-0.413208 0.0448,-0.166408 0.0671,-0.268743 0.0671,-0.307007 0.0252,-0.245753 0.0122,-0.643702 -0.0391,-1.193847 -0.0635,-0.620101 -0.0952,-0.930159 -0.0952,-0.930176 l 0.42969,-3.073731 c 0.28645,-0.196106 0.18147,-0.533833 -0.31494,-1.013183 0.0643,-0.585916 0.072,-0.983458 0.0232,-1.192627 -0.0147,-0.09438 -0.0688,-0.305561 -0.16235,-0.633545 -0.0985,-0.350726 -0.14771,-0.585101 -0.14771,-0.703125 l 0,-2.738037 c 0,-0.01544 -0.0539,-0.226414 -0.16174,-0.632935 -0.10783,-0.406467 -0.16907,-0.734225 -0.18372,-0.983276 0,0.022 -0.16276,-0.263644 -0.48828,-0.856934 -0.29297,-0.538708 -0.5542,-0.885794 -0.78369,-1.04126 -0.0374,-0.02194 -0.35726,-0.08664 -0.95947,-0.194091 -0.31169,-0.05043 -0.46753,-0.336884 -0.46753,-0.859375 -0.013,-0.36618 0.0326,-0.656707 0.13672,-0.871582 0.34342,-0.323862 0.78939,-0.484587 1.33789,-0.482178 0.53141,-0.0097 0.85408,-0.02886 0.96802,-0.05737 l 4.33105,0.09888 c 0.21647,0.07165 0.38696,0.107454 0.51148,0.107422 0.0765,3.2e-5 0.18513,-0.02214 0.32592,-0.06653 0.14078,-0.04432 0.26814,-0.0665 0.38208,-0.06653 0.28076,3.2e-5 0.62825,0.138378 1.04248,0.415039 0.28889,0.199413 0.63354,0.920441 1.03394,2.163086 0.11474,0.810576 0.26041,1.591825 0.43701,2.34375 0.16845,0.559109 0.40242,1.355413 0.70191,2.388916 0.23029,0.890323 0.56761,1.894147 1.01196,3.011475 0.7853,2.034525 1.7224,5.006527 2.81128,8.916015 0.0366,0.18556 -0.057,0.728772 -0.28076,1.629639 -0.10256,0.141613 -0.1933,0.263276 -0.27222,0.36499 -0.0537,0.699066 -0.0834,1.043304 -0.0891,1.032715 0.0163,0.04314 0.40322,0.176198 1.16089,0.39917 0.19448,0.745451 0.45856,1.691088 0.79223,2.836914 0.16926,0.372727 0.4374,1.021327 0.80445,1.945801 0.0944,0.528975 0.14646,1.031091 0.15625,1.506347 -0.0838,-0.291337 -0.033,-0.617265 0.15258,-0.977783 0.16356,-0.432938 0.40241,-1.10229 0.71656,-2.008056 -2e-5,-0.152175 0.0191,-0.388178 0.0574,-0.708008 0.21401,-1.14257 0.6494,-2.534171 1.30615,-4.174805 0.0488,-0.318999 0.15542,-0.874825 0.31983,-1.66748 0.28643,-0.703926 0.63189,-1.790351 1.03637,-3.259278 0.10171,-0.788557 0.20465,-1.601545 0.30884,-2.438965 0.10415,-0.837383 0.28562,-1.583232 0.54444,-2.237548 0.1904,-0.331197 0.41135,-0.813374 0.66284,-1.446534 0.30352,-1.732561 0.89678,-4.269993 1.77978,-7.612304 0.0268,-0.432099 0.18023,-1.026581 0.46021,-1.783448 0.37758,-0.414193 0.79445,-0.621305 1.25061,-0.621337 0.45611,3.2e-5 0.96453,-0.0089 1.52527,-0.02686 0.56068,-0.01787 1.02861,-0.02804 1.40381,-0.03052 0.0993,3.3e-5 0.22173,0.02567 0.36743,0.07691 0.14564,0.0513 0.31287,0.07694 0.50171,0.0769 l 4.25293,-0.09033 c 0.32467,-0.02927 0.59404,0.134716 0.8081,0.491943 0.214,0.357291 0.32101,0.672639 0.32105,0.946045 -0.007,0.09687 -0.0375,0.256785 -0.0928,0.479737 z"
           inkscape:connector-curvature="0" />
        <path
           id="path3847"
           style="fill:#000000;fill-opacity:1;stroke:none"
           d="m 598.56384,82.626747 c -0.4647,0.199381 -0.9599,0.279948 -1.48559,0.241699 -0.72756,-0.323893 -1.05878,-0.485839 -0.99366,-0.485839 l -1.53198,0.390625 c -1.82375,-10e-7 -3.24139,0.09481 -4.25293,0.284423 -0.74139,0.104166 -1.28948,-0.03052 -1.64428,-0.404052 -0.0318,-0.512695 0.008,-1.007893 0.11962,-1.485596 0.42479,-0.04313 0.84024,-0.132241 1.24634,-0.267334 0.074,-0.04476 0.15054,-0.157672 0.22949,-0.338745 0.0789,-0.181069 0.0924,-0.309446 0.0403,-0.385132 -0.17254,-0.768226 -0.43052,-1.88883 -0.77393,-3.361816 -0.022,-0.07975 -0.15667,-0.428461 -0.40405,-1.046143 -0.22218,-0.555006 -0.33327,-0.981844 -0.33325,-1.280518 0.022,0.161141 0.0822,0.241708 0.18066,0.2417 -0.20265,8e-6 -1.23903,0.05128 -3.10913,0.153808 l -4.09058,0.05737 c -0.0936,-0.01301 -0.23194,0.180672 -0.41503,0.581055 -0.11313,0.248216 -0.29461,0.670579 -0.54444,1.26709 -0.26124,0.794276 -0.52979,1.255701 -0.80566,1.384277 -0.28402,0.180668 -0.20549,0.58879 0.23559,1.224365 -0.0855,0.529788 -0.0944,0.870364 -0.0268,1.021729 0.0309,0.07731 0.19144,0.236818 0.48157,0.478516 0.29011,0.2417 0.53283,0.398357 0.72814,0.46997 0.0814,0.03255 0.23071,0.07813 0.448,0.136719 0.15136,0.262859 0.27994,0.587566 0.38574,0.974121 -0.47038,0.172526 -0.97819,0.308838 -1.52343,0.408936 -0.78858,-0.06511 -1.83594,-0.116374 -3.14209,-0.153809 -0.27588,0.08545 -0.74341,0.174967 -1.40259,0.268555 -0.0854,-10e-7 -0.66813,-0.06836 -1.74805,-0.205078 -0.0985,-0.249838 -0.1477,-0.426432 -0.1477,-0.529786 0,-0.275878 0.22746,-0.580646 0.68237,-0.914306 0.13997,-0.191242 0.38167,-0.445148 0.7251,-0.761719 0.25716,-0.167641 0.48828,-0.470985 0.69336,-0.910034 0.20507,-0.439043 0.52327,-1.132198 0.95459,-2.079468 0.19368,-0.616042 0.48014,-1.537265 0.85937,-2.763672 0.26367,-0.60546 0.59326,-1.508373 0.98877,-2.70874 0.34505,-1.034331 0.78206,-2.369779 1.31104,-4.006348 0.0773,-0.0773 0.34789,-0.216456 0.81176,-0.41748 0.11556,0.204279 0.0871,0.306411 -0.0854,0.306396 -0.13754,1.5e-5 -0.16155,-0.174952 -0.072,-0.524902 0.11881,-0.46141 0.17822,-0.788151 0.17823,-0.980225 -10e-6,0.222184 0.21809,0.333268 0.65429,0.333252 0.0716,-0.109033 -0.19776,0.0057 -0.8081,0.344239 -10e-6,-0.416651 0.0142,-0.75031 0.0427,-1.000977 0.20182,-0.482568 0.49316,-1.287824 0.87403,-2.415771 0.0887,-0.493959 0.36132,-1.230042 0.81787,-2.208252 0.0659,-0.219706 0.16275,-0.552957 0.29052,-0.999756 0.1123,-0.376768 0.33447,-0.948464 0.66651,-1.715088 0.0423,-0.181454 0.15176,-0.448788 0.32837,-0.802002 0.19611,-0.222143 0.63313,-0.311661 1.31103,-0.268555 0.49397,0.01223 1.34276,0.06391 2.54639,0.15503 0.37271,1.074242 0.99893,2.68801 1.87866,4.841308 0.0268,0.252298 0.0993,0.622578 0.21729,1.11084 0.18309,0.537941 0.45327,1.118182 0.81054,1.740723 -0.0643,0.125342 -0.0212,0.414241 0.1294,0.866699 0.19285,0.433772 0.49518,1.114517 0.90698,2.042236 0.26691,0.87892 0.68358,2.109794 1.25,3.692627 0.039,0.361338 0.16396,0.884612 0.37476,1.569824 -2e-5,0.10499 0.0244,0.239674 0.0732,0.404053 0.1546,0.335295 0.42438,0.962328 0.80932,1.881104 0.12531,0.182298 0.32917,0.524501 0.61158,1.026611 -0.013,0.142421 -0.005,0.277512 0.0244,0.405273 0.166,0.485845 0.43007,1.191411 0.79224,2.1167 0.11391,0.193687 0.32916,0.58716 0.64575,1.180419 0.0382,0.07406 0.32224,0.209963 0.85205,0.407715 0.18797,0.06104 0.56557,0.189617 1.13281,0.385743 z M 588.13293,72.287392 c -0.16684,0.153818 -0.72104,-1.064035 -1.66259,-3.653565 -0.13348,-0.445949 -0.36745,-1.196274 -0.70191,-2.250976 -0.12127,-0.241683 -0.32472,-0.684798 -0.61035,-1.329346 -0.0757,-0.264468 -0.0818,-0.556216 -0.0183,-0.875244 -0.17905,0.890317 -0.56357,1.897803 -1.15356,3.022461 -0.0814,0.0814 -0.15219,0.170507 -0.21241,0.267334 -0.0309,0.155451 -0.10336,0.452082 -0.21728,0.889892 -0.10092,0.203465 -0.20224,0.437026 -0.30396,0.700684 -0.0122,0.221367 -0.0464,0.520439 -0.10254,0.897217 -0.10905,0.155448 -0.21322,0.331636 -0.3125,0.528564 -0.057,0.267753 -0.15422,0.690523 -0.29174,1.268311 -0.0879,0.137543 -0.44801,0.357676 -1.08033,0.6604 0.59814,-0.66161 0.89721,-0.813384 0.89722,-0.455322 z"
           inkscape:connector-curvature="0" />
        <path
           id="path3849"
           style="fill:#000000;fill-opacity:1;stroke:none"
           d="m 610.26672,59.988808 c -0.0651,0.52411 -0.17945,1.032736 -0.34301,1.525879 -2e-5,2.1e-5 -0.4647,0.100932 -1.39405,0.302734 -0.3296,0.07815 -0.53834,0.226664 -0.62622,0.445557 -0.11068,0.166035 -0.23275,0.370706 -0.36621,0.614013 -0.0179,0.06431 -0.1762,0.774759 -0.47485,2.131348 l -0.0781,8.046875 c -0.0903,0.329599 -0.13225,0.476083 -0.12573,0.439453 -1e-5,9e-6 0.0427,0.12859 0.12817,0.385742 l -0.0403,3.081055 c -0.0846,0.382492 -0.0867,0.890304 -0.006,1.523437 0.0903,0.836592 0.25674,1.490889 0.49927,1.962891 0.0627,0.122072 0.25471,0.280357 0.57617,0.474854 0.55337,0.319011 1.26545,0.471192 2.13623,0.456543 -0.0195,0.48584 -0.13348,0.988769 -0.3418,1.508789 l -2.51953,0 c -0.0602,-10e-7 -0.28891,-0.01282 -0.68604,-0.03845 -0.39714,-0.02563 -0.60262,-0.03845 -0.61645,-0.03845 -0.0155,0 -0.17925,0.01282 -0.49133,0.03845 -0.3121,0.02563 -0.48687,0.03845 -0.5243,0.03845 -0.061,-10e-7 -0.19247,-0.01282 -0.39428,-0.03845 -0.20183,-0.02563 -0.31292,-0.03845 -0.33325,-0.03845 -0.006,0 -0.0769,0.01241 -0.21363,0.03723 -0.13672,0.02482 -0.23519,0.03804 -0.29541,0.03967 l -4.00635,0.09521 c -0.63395,0 -0.95092,-0.257568 -0.95092,-0.772705 0,-0.483397 0.18961,-0.778807 0.56884,-0.88623 0.44515,-0.08463 0.87932,-0.161131 1.30249,-0.229492 0.31332,-0.06754 0.50374,-0.159504 0.57129,-0.275879 0.0456,-0.134276 0.15015,-0.452065 0.31372,-0.953369 0.45085,0.01953 0.71981,0.05819 0.80689,0.115966 0.0635,-0.303545 0.0952,-0.511878 0.0952,-0.625 0,-0.07812 -0.0639,-0.26204 -0.19165,-0.551757 0.10172,-0.27262 0.12858,-0.450436 0.0806,-0.533448 -0.0439,-0.1123 -0.15259,-0.306798 -0.32593,-0.583496 -0.20671,-0.334467 -0.16683,-0.557042 0.11963,-0.667724 0.28645,-0.170893 0.25431,-0.584304 -0.0964,-1.240235 0.0203,-0.01139 -0.0204,-0.131015 -0.12207,-0.358886 0.21646,-0.418287 0.3247,-0.657545 0.3247,-0.717774 0,-8.06e-4 -0.0317,-0.409741 -0.0952,-1.226806 -10e-6,-0.01138 -0.0448,-0.106599 -0.13428,-0.285645 -0.0895,-0.179027 -0.13428,-0.319408 -0.13428,-0.421143 0,-0.135895 0.33773,-0.355621 1.01319,-0.659179 -0.59897,0.572113 -0.89845,0.631927 -0.89844,0.179443 l 0,-2.316894 c -10e-6,-0.08137 0.0297,-0.216052 0.0891,-0.404053 0.0594,-0.187975 0.0871,-0.282783 0.083,-0.284424 -10e-6,0.04233 -0.0191,0.02829 -0.0574,-0.04211 -0.0383,-0.07038 0.0859,-0.158475 0.37232,-0.264283 0.28645,-0.209947 0.16235,-0.500067 -0.37232,-0.870361 0,-0.09764 -0.0126,-0.292343 -0.0378,-0.584106 -0.0252,-0.291733 -0.0378,-0.437607 -0.0378,-0.437622 l 0,-1.555176 c 0,-0.06102 -0.0895,-0.247786 -0.26855,-0.560303 0.0513,-0.179018 0.0142,-0.432111 -0.11109,-0.759277 -0.013,-0.174949 -0.057,-0.412172 -0.13183,-0.71167 -0.0692,-0.07811 -0.19247,-0.242901 -0.36988,-0.494385 -0.0537,-0.134257 -0.14608,-0.332418 -0.2771,-0.594482 -0.1945,-0.301087 -0.36336,-0.487447 -0.50659,-0.559082 -0.29134,-0.07566 -0.81543,-0.252665 -1.57226,-0.531006 0.0488,-0.420714 0.15787,-0.864643 0.32714,-1.331787 l 0.48584,0 c 0.0423,2.2e-5 0.16602,0.01345 0.3711,0.04028 0.20507,0.02688 0.46102,0.03909 0.76782,0.03662 z"
           inkscape:connector-curvature="0" />
        <path
           id="path3851"
           style="fill:#000000;fill-opacity:1;stroke:none"
           d="m 631.49353,74.097694 -0.35767,0.211182 -0.57373,-0.386963 0.26978,-0.911865 c 0.67381,0.725106 0.89435,1.087655 0.66162,1.087646 z m 7.31934,-14.68872 c -0.51924,0.07733 -0.97537,0.15668 -1.36841,0.238037 -0.3638,0.105817 -0.68362,0.390241 -0.95947,0.853271 -0.32067,0.570497 -0.5233,1.173931 -0.60791,1.810303 -0.16198,1.143411 -0.24295,2.082538 -0.24292,2.817383 -3e-5,0.123715 0.0248,0.692766 0.0745,1.707153 0.0496,1.014419 0.0757,1.556207 0.0781,1.625366 l 0,3.044434 c -2e-5,0.03256 0.0224,0.157482 0.0671,0.374756 0.0447,0.217296 0.0578,0.406911 0.0391,0.568847 -0.0733,1.51124 -0.10866,2.358407 -0.1062,2.541504 -2e-5,0.08709 0.025,0.285856 0.0751,0.596314 0.05,0.310472 0.0763,0.501105 0.0787,0.571899 l 0,5.878907 c -2e-5,-0.102539 -0.0157,-0.136312 -0.047,-0.101319 -0.0313,0.03499 0.003,0.229493 0.10437,0.583496 -0.89357,-0.326334 -1.43882,-0.359293 -1.63574,-0.09888 -0.65595,0.260417 -1.08645,0.298666 -1.2915,0.114746 -0.90334,-0.837401 -2.23676,-2.301429 -4.00025,-4.392089 -0.33367,-0.485022 -0.7715,-1.047358 -1.31347,-1.687012 -0.58189,-0.568027 -1.31797,-1.340732 -2.20825,-2.318115 -0.2287,-0.380037 -0.62217,-0.962312 -1.18042,-1.746827 -1.1369,-1.376941 -2.74497,-3.401272 -4.82422,-6.072998 -0.25148,-0.194482 -0.66529,-0.572086 -1.24146,-1.132812 -0.0228,-0.155419 -0.0513,-0.277489 -0.0854,-0.366211 -0.16521,-0.262026 -0.34058,-0.558657 -0.52612,-0.889893 0.11474,0.02443 0.0289,0.09239 -0.25757,0.203858 -0.28646,-0.273419 -0.0562,0.359312 0.69092,1.898193 0.0171,0.120459 0.005,0.266333 -0.0354,0.437622 -0.0407,0.171322 -0.0586,0.267147 -0.0537,0.287476 -10e-6,0.598973 -0.0498,1.408299 -0.14954,2.427978 -0.0997,1.019707 -0.14832,1.518974 -0.14587,1.497803 l 0.42969,2.680664 c -10e-6,0.332854 0.009,1.047575 0.0268,2.144165 0.0179,1.096604 0.0281,1.677862 0.0305,1.743775 -1e-5,2.430829 0.81216,3.706056 2.43652,3.825683 0.20588,-0.0024 0.35013,0.07792 0.43274,0.241089 0.0826,0.163169 0.16214,0.282187 0.23865,0.357056 0.022,0.388998 -0.057,0.761312 -0.23682,1.116943 l -6.95801,0 c -0.007,0 -0.22298,0.0352 -0.64941,0.105591 -0.42643,0.07039 -0.68237,0.10559 -0.76782,0.105591 l -0.50415,0 c -0.27019,-0.267741 -0.40528,-0.468343 -0.40528,-0.601807 0,-0.594075 0.22258,-1.012368 0.66773,-1.254883 0.35644,-0.109048 0.82641,-0.291746 1.40991,-0.548095 0.51188,-0.282387 0.82153,-0.591632 0.92896,-0.927735 0.33202,-2.07519 0.41584,-3.276768 0.25146,-3.604736 -0.11638,-0.293776 -0.12533,-0.569248 -0.0268,-0.826416 -1e-5,7e-6 0.0338,-0.0053 0.10131,-0.01587 0,7e-6 -0.0354,-0.0081 -0.1062,-0.02441 -0.0187,-0.219719 -0.0153,-0.509229 0.0104,-0.868531 0.0256,-0.359285 0.0384,-0.61136 0.0384,-0.756225 0,-0.134268 -0.0352,-0.418488 -0.10559,-0.852661 -0.0704,-0.434153 0.0376,-0.762726 0.3241,-0.985718 0.28645,-0.06916 0.16886,-0.450428 -0.35279,-1.143799 0.007,0.03012 -0.05,-0.138334 -0.17212,-0.505371 l 0.17701,-0.252686 c 8.1e-4,-0.0016 0.008,-0.103746 0.0208,-0.306396 0.0211,0.02768 0.0216,0.06064 10e-4,0.09888 -0.18392,-1.485174 -0.27588,-2.493067 -0.27588,-3.023682 l 0,-2.618408 c 0,1.9e-5 -0.0224,-0.377178 -0.0671,-1.131592 -0.0448,-0.754374 -0.0671,-1.304503 -0.0671,-1.65039 0,-0.08461 0.0224,-0.184712 0.0671,-0.300293 0.0448,-0.115538 0.0663,-0.149718 0.0647,-0.102539 -0.82194,-0.874815 -1.96493,-1.261371 -3.42896,-1.159668 l -0.34057,-0.325928 0,-0.922852 c 0.28646,-0.339331 0.77433,-0.509008 1.46362,-0.509033 8.1e-4,2.5e-5 0.50049,0.02627 1.49902,0.07873 0.99853,0.05251 1.52669,0.07754 1.58448,0.07507 0.10416,2.4e-5 0.59061,-0.025 1.45935,-0.07507 0.86872,-0.05002 1.33971,-0.07627 1.41296,-0.07873 0.37516,2.5e-5 0.61156,0.02485 0.70923,0.07446 0.24657,0.08792 0.7023,0.630721 1.36719,1.628418 1.05956,1.618674 2.61921,3.745136 4.67895,6.379394 0.44107,0.560726 1.12832,1.431494 2.06177,2.612305 -0.15301,0.92612 -0.13674,1.389173 0.0488,1.38916 -0.0212,1.3e-5 0.0447,-0.03824 0.19775,-0.114746 0.15298,-0.07648 0.29784,-0.114733 0.43457,-0.114746 0.33527,1.3e-5 0.68195,0.30234 1.04004,0.906983 0.13996,0.244152 0.26447,0.464285 0.37354,0.6604 0.93422,0.755219 1.53603,1.365163 1.80542,1.829834 0.0553,0.232757 0.14198,0.545663 0.26001,0.938721 -0.0139,-0.01871 -0.0631,-0.02807 -0.14771,-0.02808 -0.0431,9e-6 -0.0283,-0.0183 0.0446,-0.05493 0.0728,-0.03661 0.22316,-0.06916 0.45105,-0.09766 0.45733,0.489917 0.90167,1.032315 1.333,1.627197 -0.1522,0.0024 -0.22829,0.03704 -0.22827,0.10376 -2e-5,-0.01953 -0.0254,-0.105991 -0.0763,-0.2594 -0.0509,-0.153394 -0.0763,-0.283806 -0.0763,-0.391235 l 0,-2.049561 c -2e-5,-0.02278 -0.01,-0.09459 -0.0287,-0.215454 -0.0191,-0.120839 -0.0287,-0.312693 -0.0287,-0.575561 0.0521,-0.247385 0.0903,-0.56192 0.11475,-0.943604 -0.0602,-0.333647 -0.14203,-0.865059 -0.24536,-1.594238 -0.0277,-0.13752 -0.0155,-0.356635 0.0366,-0.657349 0.0521,-0.300686 0.0769,-0.459173 0.0745,-0.475464 -2e-5,-0.01056 -0.0191,-0.09581 -0.0574,-0.255737 -0.0383,-0.159897 -0.0574,-0.277288 -0.0574,-0.352173 -0.0253,-0.246567 -0.0253,-0.580632 0,-1.002197 0.0252,-0.489893 0.0378,-0.815006 0.0378,-0.975342 -3e-5,-0.01789 -0.0287,-0.103743 -0.0861,-0.257568 -0.0574,-0.153792 -0.0926,-0.288069 -0.10559,-0.402832 -3e-5,1.7e-5 0.0256,-0.192447 0.0769,-0.577393 0.013,-0.06346 -0.009,-0.235984 -0.0665,-0.517578 -0.0574,-0.281557 -0.0861,-0.51349 -0.0861,-0.695801 -2e-5,-0.08868 0.0254,-0.214621 0.0763,-0.377807 0.0508,-0.163148 0.0698,-0.258159 0.0568,-0.285035 -0.0765,-0.611144 -0.20591,-1.363911 -0.38818,-2.2583 -0.13593,-0.504535 -0.86795,-0.872373 -2.19605,-1.103516 0.0252,-0.401181 -4.3e-4,-0.778378 -0.0769,-1.131592 0.31817,-0.295385 0.86627,-0.44309 1.64428,-0.443115 l 3.63648,0.528564 c -0.36705,0.258 0.19529,0.09036 1.68701,-0.502929 0.78855,-0.05531 1.50998,0.02932 2.16431,0.253906 z"
           inkscape:connector-curvature="0" />
      </g>
    </g>
    <g
       id="g3952"
       transform="matrix(0.75,0,0,0.75,397.66692,98.100623)"
       style="stroke:none">
      <g
         transform="translate(-259.21529,0.6875)"
         id="text4131"
         style="font-size:40px;font-style:normal;font-variant:normal;font-weight:bold;font-stretch:normal;text-align:start;line-height:125%;letter-spacing:0px;word-spacing:0px;writing-mode:lr-tb;text-anchor:start;fill:#000000;fill-opacity:1;stroke:none;font-family:Ringbearer;-inkscape-font-specification:Ringbearer Bold">
        <path
           id="path3869"
           style="fill:#000000;fill-opacity:1;stroke:none"
           d="m 578.05115,210.97482 c -0.12618,0.56966 -0.32108,1.01684 -0.58472,1.34156 -0.24418,0.18228 -0.50907,0.28156 -0.79468,0.29785 -1.03519,0.0789 -1.85102,0.0732 -2.44751,-0.0171 -0.21243,-0.17986 -0.352,-0.34547 -0.4187,-0.49683 0.11065,-0.14893 0.23638,0.0236 0.3772,0.51758 -0.54365,-0.0277 -1.09907,-0.11679 -1.66626,-0.26733 -0.0838,-0.27101 -0.15791,-0.46266 -0.22217,-0.57496 -0.70315,0.0765 -1.29153,0.0533 -1.76514,-0.0696 -0.15546,-0.0439 -0.60468,-0.3833 -1.34765,-1.01806 -0.81627,-0.69581 -1.74441,-1.84774 -2.78443,-3.45581 -0.31089,-0.48666 -1.15033,-1.934 -2.51831,-4.34204 -0.22788,-0.39307 -0.34182,-0.86548 -0.34179,-1.41724 0.77146,-0.21484 1.44366,-0.19002 2.0166,0.0745 0.19691,0.22461 0.30922,0.4244 0.33691,0.59937 -0.13918,0.15706 -0.21893,0.16846 -0.23925,0.0342 0.45326,-0.50781 0.64491,-0.76172 0.57495,-0.76172 -0.0562,0.0553 -0.0843,0.16154 -0.0842,0.3186 -0.59329,-0.16682 -1.6378,-0.32592 -3.13355,-0.47729 -0.69989,-0.93424 -1.58937,-2.17692 -2.66845,-3.72803 -0.0448,-0.17659 -0.11233,-0.35278 -0.20264,-0.52856 0.10984,0.0553 0.0484,0.083 -0.18433,0.083 l -9.02588,0.17334 c -0.19044,-0.026 -0.31902,0.048 -0.38574,0.22217 -0.37517,0.83334 -0.83009,2.05893 -1.36474,3.67676 -0.28322,1.30371 -0.42482,2.19727 -0.42481,2.68066 -10e-6,0.30925 0.0211,0.56519 0.0635,0.76783 0.0423,0.20263 0.47688,0.56396 1.30371,1.08398 0.19693,0.0895 0.49844,0.23234 0.90454,0.42847 0.25959,0.15706 0.38939,0.531 0.3894,1.12182 -0.47038,0.25635 -0.86467,0.27262 -1.18286,0.0488 -0.17986,0.0863 -0.81869,0.17049 -1.9165,0.25269 -1.62924,-0.0895 -2.5407,-0.1176 -2.73438,-0.0842 -2.03532,0.23437 -3.42122,0.2421 -4.15771,0.0232 -0.0399,-0.61605 0.0297,-1.00545 0.20874,-1.16821 0.0138,-0.0171 0.38167,-0.30518 1.10351,-0.86426 0.5249,-0.39795 0.9493,-0.93872 1.2732,-1.62231 0.47119,-0.98063 0.92,-1.98812 1.34643,-3.02246 0.026,-0.0635 0.82723,-2.42269 2.40357,-7.07764 0.28564,-1.05142 0.79467,-2.59724 1.5271,-4.63745 0.31086,-0.52977 0.67097,-1.2805 1.08032,-2.2522 0.1009,-0.60952 0.27099,-1.49046 0.51025,-2.64282 0.22542,-0.43699 0.50618,-1.01032 0.84229,-1.71997 0.18228,-0.50698 0.52611,-1.36839 1.03149,-2.58423 0.14078,-0.29213 0.39224,-1.11651 0.7544,-2.47315 -0.53712,-0.2669 -1.28948,-0.56393 -2.25708,-0.89111 -0.0529,-0.77552 0.17251,-1.28049 0.67627,-1.51489 1.41681,0.0896 2.26561,0.1343 2.54638,0.13428 l 2.68189,0 c 0.61928,2e-5 1.28823,0.10012 2.00683,0.30029 0.16519,0.30764 0.31574,0.84557 0.45166,1.61377 0.0513,0.0676 0.14179,0.2346 0.27161,0.5011 0.12978,0.26654 0.26386,0.79735 0.40222,1.5924 0.0773,0.61608 0.22296,1.55276 0.43701,2.81006 0.29621,1.32327 0.85244,3.18972 1.66871,5.59937 0.23354,0.38169 0.57574,1.08237 1.02661,2.10205 0.16843,0.6478 0.4557,1.58123 0.86181,2.80029 2.1061,4.90886 4.4531,9.36442 7.04102,13.3667 0.48093,0.60709 1.22515,1.61214 2.23267,3.01514 -0.32719,0.37597 -0.50582,0.58593 -0.53589,0.62988 -0.004,-0.061 -0.0261,-0.0916 -0.0659,-0.0916 0.0325,-1e-5 0.0488,-0.15951 0.0488,-0.47852 1.10755,0.47851 2.00395,0.94197 2.68921,1.39038 0.79098,0.45166 1.57914,0.67749 2.3645,0.67749 z m -18.93677,-17.36694 -3.65601,-10.48096 c -0.23439,0.88381 -0.8838,2.41498 -1.94824,4.59351 -0.0122,0.28973 -0.21974,0.96356 -0.62256,2.02148 -10e-6,0.16115 -0.024,0.42726 -0.072,0.79834 -0.19207,0.29461 -0.3825,0.62013 -0.57129,0.97657 -0.0374,0.37517 -0.15463,0.97209 -0.35156,1.79077 -0.12696,0.12696 -0.22625,0.23845 -0.29785,0.33447 0.007,-0.0692 0.0277,-0.0696 0.0635,-10e-4 0.0667,0.44679 0.0618,0.67017 -0.0146,0.67016 z"
           inkscape:connector-curvature="0" />
        <path
           id="path3871"
           style="fill:#000000;fill-opacity:1;stroke:none"
           d="m 596.0199,203.6091 c -0.17093,0.23275 -0.39472,0.47201 -0.67139,0.71777 -0.6649,0.36947 -1.16539,0.5542 -1.50146,0.5542 l -2.29859,0 c -0.82684,0 -1.44655,-0.0342 -1.85913,-0.10254 -0.34588,-0.12614 -0.78045,-0.27547 -1.30371,-0.44799 -0.56724,-0.17823 -1.47992,-0.98186 -2.73804,-2.41089 -0.12534,-0.14242 -0.63885,-0.98633 -1.54052,-2.53174 -0.8008,-1.38509 -1.44126,-2.57242 -1.92139,-3.56201 -0.11476,-0.35563 -0.30438,-0.78613 -0.56885,-1.29151 -0.0204,-0.0342 -0.19573,-0.0334 -0.52612,0.002 -0.33693,0.0407 -0.67994,0.0802 -1.02905,0.11841 -0.44598,-0.0252 -1.07871,-0.0317 -1.8982,-0.0195 0.0521,1e-5 0.0867,-0.0142 0.10376,-0.0427 0.0464,0.38249 0.10823,1.90512 0.18555,4.56787 0.0122,0.47445 0.11636,1.1377 0.3125,1.98974 -10e-6,0.22462 0.0537,0.52369 0.16113,0.89722 0.20344,0.35075 0.5428,0.6071 1.01807,0.76904 0.48501,0.13998 1.06485,0.30762 1.7395,0.50293 0.0325,0.3475 0.0122,0.70272 -0.061,1.06568 -0.55176,0.22868 -1.05388,0.34301 -1.50634,0.34302 l -2.0105,0 c -0.0635,-1e-5 -0.25473,-0.0319 -0.57373,-0.0958 -0.31902,-0.0639 -0.52979,-0.0958 -0.63233,-0.0958 -0.37842,0 -0.98491,0.0319 -1.81945,0.0958 -0.83456,0.0639 -1.25184,0.0958 -1.25183,0.0958 l -1.96534,0 c -0.26123,-1e-5 -0.63436,-0.10417 -1.11938,-0.3125 0,-0.16439 -0.0159,-0.30376 -0.0476,-0.4181 -0.0317,-0.11433 -0.0476,-0.31392 -0.0476,-0.59875 0.82764,-0.22217 1.31917,-0.37191 1.47461,-0.44922 0.37923,-0.17415 0.69702,-0.4895 0.95337,-0.94604 0.0952,-0.17171 0.16642,-0.69865 0.21363,-1.58081 -10e-6,-0.18066 0.0448,-0.59001 0.13427,-1.22803 0.0765,-0.58593 0.11474,-1.01643 0.11475,-1.29151 -10e-6,-1.77245 0.0189,-2.74169 0.0568,-2.90771 0.0378,-0.16601 0.1532,-0.34586 0.34607,-0.53955 -0.0431,0.0252 -0.15056,-0.11799 -0.32226,-0.42969 -0.0789,-0.28482 -0.11842,-0.65876 -0.11841,-1.12183 l 0,-1.93359 c -1e-5,0.0155 0.12288,-0.18024 0.36865,-0.58716 -0.0464,-0.11147 -0.13103,-0.92772 -0.25391,-2.44873 0.0212,0.0497 -4.1e-4,0.0338 -0.0647,-0.0476 -0.16114,-0.59487 -0.16277,-1.33421 -0.005,-2.21801 0.0464,-0.17983 -0.0382,-0.89354 -0.2539,-2.14112 -0.0122,-0.42071 -0.11435,-0.92323 -0.3064,-1.50756 -0.18962,-0.23354 -0.45492,-0.38369 -0.7959,-0.45044 -0.3833,-0.0895 -0.87199,-0.19611 -1.46606,-0.31983 0,-0.67706 0.12288,-0.93707 0.36865,-0.78003 -0.23112,-0.44268 -0.11109,-0.67746 0.36011,-0.70434 0.5192,-0.0252 1.3269,-0.0805 2.42309,-0.16602 1.11898,-0.1074 1.69881,-0.16233 1.7395,-0.16479 l 2.47071,0 c 0.44107,2e-5 0.90372,-0.0382 1.38794,-0.11475 0.4842,-0.0765 0.909,-0.11472 1.27441,-0.11475 0.43049,3e-5 0.99812,0.0415 1.70288,0.12452 0.41666,0.0904 1.05223,0.22504 1.90674,0.40405 0.0944,0.0627 0.19977,0.11477 0.31616,0.15625 1.29149,0.20185 2.43976,0.8183 3.44483,1.84936 0.5794,0.60468 1.08396,1.63943 1.51367,3.10425 0.0146,0.24091 0.035,0.55707 0.061,0.94849 0.0276,0.34914 0.002,0.85329 -0.0769,1.51245 -0.17336,1.40789 -0.51719,2.48821 -1.03149,3.24097 -0.4411,0.6478 -1.25531,1.52223 -2.44263,2.62329 -0.004,0.0993 0.0285,0.21038 0.0977,0.33325 0.8146,1.56414 1.6223,3.11483 2.4231,4.6521 0.93911,1.64144 2.07029,3.03141 3.39356,4.16992 0.074,0.0651 0.48947,0.20345 1.24633,0.41504 0.43211,0.11556 0.78937,0.14526 1.07178,0.0891 0.55417,-0.10986 1.05873,-0.13916 1.51367,-0.0879 0.087,0.29867 0.13059,0.58797 0.13062,0.86792 z m -11.35376,-16.50635 c -2e-5,-0.36131 -0.0179,-0.58063 -0.0537,-0.65796 -0.63478,-1.68943 -1.19142,-2.85154 -1.66993,-3.48632 -0.49073,-0.39956 -1.06405,-0.67707 -1.71997,-0.83252 -0.4712,-0.11147 -1.2317,-0.14158 -2.28149,-0.0903 -0.0464,0.007 -0.10051,0.0261 -0.16235,0.0586 -0.19288,2.06382 -0.31251,3.72682 -0.35889,4.98901 0.039,0.0619 0.10334,0.22748 0.19287,0.49683 -10e-6,0.18475 -0.0598,0.93792 -0.17944,2.25952 -0.0733,0.80649 -0.0598,1.58204 0.0403,2.32666 -0.005,-0.007 -0.0199,-0.0244 -0.0452,-0.0537 l 1.73096,0 c 0.21646,0.0513 0.43212,0.0769 0.64697,0.0769 0.65836,1e-5 1.30045,-0.21524 1.92627,-0.64575 0.6258,-0.43049 0.99893,-0.76577 1.11939,-1.00586 0.54279,-1.01154 0.81419,-2.15656 0.81421,-3.43506 z"
           inkscape:connector-curvature="0" />
        <path
           id="path3873"
           style="fill:#000000;fill-opacity:1;stroke:none"
           d="m 618.16345,190.06662 c 0.0814,0.68198 0.0163,1.87461 -0.19531,3.57788 -0.12942,0.51678 -0.31537,1.26669 -0.55786,2.24976 -0.53795,2.23063 -1.5316,4.02344 -2.98096,5.37841 -0.55666,0.51759 -1.26955,1.03313 -2.13867,1.54664 -1.04331,0.62744 -1.86729,0.96639 -2.47192,1.01684 -0.0448,0.0309 -0.1876,0.0895 -0.42847,0.17578 -1.945,0.0252 -2.89593,0.0378 -2.85278,0.0378 l -12.81983,0.39063 c -0.153,-0.81217 -0.0732,-1.33789 0.23926,-1.57715 0.62418,-0.22217 0.98754,-0.33325 1.09009,-0.33325 -10e-6,0.002 0.0761,-0.0932 0.22827,-0.28443 0.53222,-0.55582 0.79833,-1.16047 0.79834,-1.81396 -10e-6,0.0326 -0.0383,-0.13346 -0.11475,-0.49805 0.0545,-0.17252 0.0928,-0.32673 0.11475,-0.46264 -0.0334,-0.0513 -0.0964,-0.20874 -0.18921,-0.47242 -0.0147,-0.14159 0.0106,-0.32775 0.0757,-0.55847 0.0651,-0.2307 0.10376,-0.39367 0.11597,-0.48889 0.0236,-0.45572 0.0354,-1.19954 0.0354,-2.23144 l 0,-2.15943 c -0.0122,-1.47053 8.1e-4,-3.60391 0.0391,-6.40014 0,0.0195 -0.0319,-0.0376 -0.0958,-0.17151 -0.0639,-0.13386 -0.0958,-0.26183 -0.0958,-0.38391 0,-0.24087 0.0319,-0.57555 0.0958,-1.00403 0.0639,-0.42845 0.0958,-0.7322 0.0958,-0.91126 0,0.0179 -0.0344,-0.036 -0.10315,-0.16174 -0.0688,-0.12571 -0.1239,-0.26508 -0.1654,-0.41809 0.013,-0.26365 -0.004,-0.62132 -0.0525,-1.073 -0.18881,-0.74461 -0.43987,-1.19993 -0.75318,-1.36597 -0.31901,-0.15948 -0.99243,-0.31532 -2.02026,-0.46753 -0.0439,-0.26202 -0.0659,-0.62009 -0.0659,-1.07421 0.79183,-0.3727 1.55029,-0.48989 2.27539,-0.35157 0,3e-5 0.0313,0.0291 0.094,0.0873 0.0627,0.0582 0.0305,0.0902 -0.0964,0.0958 0.0553,-0.0301 0.17456,-0.0997 0.35767,-0.20874 0.50292,-0.0154 0.96516,-0.0301 1.38672,-0.0439 0.62825,0.0179 1.06688,0.20795 1.31591,0.57007 -0.15137,0.004 -0.27873,0.0167 -0.38208,0.0378 0.0781,-0.13099 0.30436,-0.39874 0.67872,-0.80322 0.52733,0.0635 1.05712,0.13634 1.58935,0.21851 -0.12452,-0.006 -0.17233,-0.0415 -0.14343,-0.10743 0.0289,-0.0659 0.0962,-0.12001 0.20202,-0.16235 0.49072,-0.15785 1.15071,-0.23679 1.97998,-0.23682 l 4.90357,0 c 2.16958,0.4875 3.69993,0.92736 4.59106,1.31958 1.73257,0.75279 3.16445,1.91938 4.29566,3.49976 0.18552,0.24091 0.48215,0.69419 0.88989,1.35986 0.57533,1.13772 0.98712,2.69208 1.23535,4.66309 z m -1.71509,0.38818 c -1.27687,-0.0846 -2.26849,-0.11432 -2.97485,-0.0891 -0.31415,-0.1603 -0.4586,-0.48379 -0.43335,-0.97046 -0.22951,-0.55581 -0.55381,-1.27195 -0.9729,-2.14843 -0.71372,-1.45262 -1.45672,-2.56204 -2.229,-3.32825 -0.77232,-0.76617 -2.02598,-1.30511 -3.76099,-1.61682 -0.80242,-0.39956 -1.15317,-0.59935 -1.05225,-0.59937 l -1.97265,0.39063 c -0.0236,2e-5 -0.36297,0.0607 -1.01807,0.18188 -0.65512,0.12128 -0.98023,0.18232 -0.97534,0.18311 -0.13673,0.68117 -0.18637,1.52874 -0.14893,2.54272 0.0293,0.57212 0.0439,1.59182 0.0439,3.05908 l -0.42969,7.5647 c -0.28646,0.24741 -0.16439,0.47568 0.36621,0.68482 -0.0228,0.35726 -0.0244,0.61158 -0.005,0.76294 -0.21729,0.78695 -0.46794,1.26424 -0.75195,1.43188 0.5314,0.25066 0.81013,0.54403 0.83618,0.88013 0.002,0.0618 0.0354,0.20305 0.0989,0.42358 0.0773,0.26693 0.0871,0.52328 0.0293,0.76904 -0.0822,0.11964 -0.35116,0.2649 -0.80688,0.43579 -0.17905,0.0781 -0.27711,0.0879 -0.29419,0.0293 0.0618,0.0244 0.22704,0.0509 0.4956,0.0794 0.21972,0.01 0.45165,0.0134 0.6958,0.011 2.56347,0.29379 4.05313,0.44068 4.469,0.44068 1.1564,0 2.17365,-0.17497 3.05176,-0.5249 0.75763,-0.30843 1.52748,-0.75277 2.30957,-1.33301 0.76821,-0.9969 1.32973,-2.30387 1.68457,-3.9209 0.17413,-0.79996 0.29905,-2.13541 0.37475,-4.00635 -2e-5,-0.0586 -0.11029,-0.22256 -0.33081,-0.49194 -0.0342,-0.47199 0.11107,-0.75194 0.43579,-0.83985 0.18797,-0.0626 0.58633,-0.13263 1.19507,-0.20996 0.50535,-0.0488 1.21905,-0.12775 2.14112,-0.23681 -0.0472,0.0366 -0.0708,0.18515 -0.0708,0.44555 z"
           inkscape:connector-curvature="0" />
        <path
           id="path3875"
           style="fill:#000000;fill-opacity:1;stroke:none"
           d="m 648.46619,179.5881 c -3e-5,0.95625 -0.20958,1.46569 -0.62867,1.52832 -0.22382,0.022 -0.5827,0.0985 -1.07666,0.2295 -0.1815,-0.0122 -0.39227,0.0354 -0.63232,0.14282 -0.33206,0.30357 -0.5351,0.8065 -0.60913,1.50879 -0.0529,0.0904 -0.0956,0.18028 -0.12817,0.26977 -0.0578,0.64211 -0.0753,1.04047 -0.0525,1.19507 0.17982,1.18085 0.27097,1.78632 0.27343,1.81641 l 0,1.47461 c -2e-5,0.0855 -0.0252,0.21038 -0.0757,0.37475 -0.0505,0.16441 -0.0794,0.26328 -0.0867,0.29663 -0.007,0.0537 7.9e-4,0.18597 0.022,0.39673 0.11961,1.05715 0.17942,2.40561 0.17945,4.04541 -3e-5,0.079 -0.0224,0.15342 -0.0671,0.22339 -0.0448,0.07 -0.0672,0.0912 -0.0671,0.0635 -3e-5,0.9782 0.0126,1.33953 0.0378,1.08398 -0.0586,1.0018 -0.17987,2.1277 -0.36377,3.37769 -0.092,0.49317 -0.32473,1.15601 -0.69824,1.98852 -0.37356,0.83253 -0.70071,1.43759 -0.98145,1.81519 -0.32066,0.41423 -0.91229,0.93099 -1.7749,1.55029 -0.68117,0.49398 -1.42458,0.9843 -2.23022,1.47095 -0.25067,-0.13997 -0.73814,-0.0989 -1.46241,0.12329 -0.15138,0.0863 -0.43499,0.22664 -0.85083,0.42114 -0.18719,0.0456 -0.36317,0.0342 -0.52795,-0.0342 -0.16481,-0.0684 -0.22361,-0.0976 -0.17639,-0.0879 l -1.41724,-0.39062 c -0.10743,-0.26042 -0.45859,-0.22054 -1.05347,0.11963 -0.30518,-0.0138 -0.75115,-0.0688 -1.33789,-0.1648 -0.36622,-0.19612 -0.86386,-0.41666 -1.49292,-0.66162 -0.17741,-0.0106 -0.47282,-0.0415 -0.88623,-0.0928 -0.21241,-0.0586 -0.57821,-0.3125 -1.09741,-0.76172 -2.29411,-1.17187 -3.49406,-3.43587 -3.59985,-6.79199 l -0.17212,-6.04248 c -0.0871,-1.63492 -0.26612,-4.11823 -0.53711,-7.44996 -0.0643,-0.60788 -0.27629,-1.02414 -0.63599,-1.24877 -0.10661,-0.0773 -0.73608,-0.25999 -1.88842,-0.5481 -0.11719,-0.23435 -0.17579,-0.41583 -0.17579,-0.54443 0,-0.50291 0.39917,-0.71735 1.19751,-0.64331 0.92448,0.11802 2.0284,0.17702 3.31177,0.177 l 1.85669,0 c 0.0155,2e-5 0.18228,-0.0256 0.50049,-0.0769 0.31819,-0.0512 0.54727,-0.0769 0.68725,-0.0769 0.65999,0.0407 1.67317,0.0151 3.03956,-0.0769 0.25145,0.30846 0.37718,0.55382 0.37719,0.73609 -10e-6,0.42564 -0.4769,0.71535 -1.43066,0.86914 -8.3e-4,8.4e-4 -0.10377,0.0716 -0.30884,0.2124 -0.0936,0.0423 -0.20753,0.1046 -0.3418,0.18677 -0.14405,0.11233 -0.22502,0.2169 -0.24292,0.31372 -0.23194,1.16945 -0.63965,2.37347 -1.22314,3.61206 0.0521,-0.28888 0.18391,-0.15379 0.39551,0.40527 0.16112,-0.10008 0.18431,0.31171 0.0696,1.23536 0.0504,0.21079 -0.12615,0.72185 -0.52979,1.5332 0.0936,-0.4134 0.30639,0.0488 0.63843,1.38672 0.0138,0.18963 -0.0171,0.75603 -0.0928,1.69922 0.003,0.013 0.0297,0.0863 0.0793,0.21972 -10e-6,0.083 -0.0468,0.58392 -0.14038,1.50269 -0.022,0.24089 0.0317,0.79021 0.16113,1.64795 0.0562,0.0757 0.13346,0.22706 0.23194,0.4541 0.0293,0.0822 0.0781,0.56438 0.14648,1.44653 -0.0106,0.12859 -0.0159,0.33285 -0.0159,0.61279 0.0391,0.0871 0.11108,0.26246 0.21607,0.52613 0.0602,0.1823 0.0647,0.36092 0.0134,0.53589 0.0814,0.0846 0.28197,0.3593 0.6018,0.82397 0.14241,0.26124 0.41706,0.60669 0.82398,1.03638 0.32958,0.25635 0.65591,0.50985 0.979,0.7605 0.45328,0.32226 0.84878,0.51107 1.18652,0.5664 0.26122,0.0293 0.6254,0.0439 1.09253,0.0439 l 2.54639,0 c 0.56964,0 1.20522,-0.36784 1.90674,-1.10352 0.68846,-0.71207 1.12872,-1.43188 1.3208,-2.15942 0.10252,-0.71289 0.22377,-1.57389 0.36377,-2.58301 0.10252,-0.64534 0.10252,-1.51529 0,-2.60986 l 0.0391,-9.04785 c -0.0863,-0.72508 -0.27956,-1.57591 -0.57983,-2.55249 -0.0879,-0.27993 -0.47162,-0.51146 -1.15113,-0.69458 -0.19533,-0.0488 -0.52044,-0.1188 -0.97534,-0.20997 -0.17498,-0.29131 -0.26247,-0.44227 -0.26245,-0.45288 -0.0635,3e-5 0.26121,-0.28358 0.97412,-0.85083 1.0034,-0.11879 1.92747,-0.0826 2.77222,0.10865 0.0976,-0.0317 0.32265,-0.0561 0.67505,-0.0733 0.47279,0.0871 1.28049,0.07 2.42309,-0.0513 0.0944,-0.0195 0.22154,-0.0122 0.38147,0.022 0.15989,0.0342 0.25002,0.0493 0.27039,0.0452 0.15785,3e-5 0.92038,-0.0512 2.2876,-0.15381 z"
           inkscape:connector-curvature="0" />
        <path
           id="path3877"
           style="fill:#000000;fill-opacity:1;stroke:none"
           d="m 658.72498,181.63766 c -0.0651,0.52412 -0.17946,1.03274 -0.34302,1.52588 -1e-5,2e-5 -0.46469,0.10094 -1.39404,0.30274 -0.3296,0.0781 -0.53834,0.22666 -0.62623,0.44555 -0.11068,0.16604 -0.23275,0.37071 -0.36621,0.61402 -0.0179,0.0643 -0.17619,0.77476 -0.47485,2.13135 l -0.0781,8.04687 c -0.0903,0.3296 -0.13225,0.47608 -0.12573,0.43945 -10e-6,1e-5 0.0427,0.12859 0.12818,0.38575 l -0.0403,3.08105 c -0.0846,0.38249 -0.0867,0.89031 -0.006,1.52344 0.0903,0.83659 0.25675,1.49089 0.49927,1.96289 0.0626,0.12207 0.25471,0.28036 0.57617,0.47485 0.55337,0.31901 1.26545,0.4712 2.13623,0.45655 -0.0195,0.48584 -0.13348,0.98877 -0.3418,1.50878 l -2.51953,0 c -0.0602,0 -0.28891,-0.0128 -0.68603,-0.0385 -0.39715,-0.0256 -0.60263,-0.0384 -0.61646,-0.0384 -0.0155,0 -0.17925,0.0128 -0.49133,0.0384 -0.3121,0.0256 -0.48687,0.0385 -0.52429,0.0385 -0.0611,0 -0.19247,-0.0128 -0.39429,-0.0385 -0.20183,-0.0256 -0.31291,-0.0384 -0.33325,-0.0384 -0.006,0 -0.0769,0.0124 -0.21363,0.0372 -0.13672,0.0248 -0.23519,0.038 -0.29541,0.0397 l -4.00634,0.0952 c -0.63396,0 -0.95093,-0.25757 -0.95093,-0.77271 0,-0.48339 0.18961,-0.7788 0.56885,-0.88623 0.44514,-0.0846 0.87931,-0.16113 1.30249,-0.22949 0.31331,-0.0675 0.50374,-0.1595 0.57129,-0.27588 0.0456,-0.13427 0.15014,-0.45206 0.31372,-0.95337 0.45084,0.0195 0.7198,0.0582 0.80688,0.11597 0.0635,-0.30354 0.0952,-0.51188 0.0952,-0.625 -10e-6,-0.0781 -0.0639,-0.26204 -0.19165,-0.55176 0.10172,-0.27262 0.12857,-0.45043 0.0806,-0.53344 -0.0439,-0.1123 -0.15259,-0.3068 -0.32593,-0.5835 -0.20671,-0.33447 -0.16683,-0.55704 0.11963,-0.66773 0.28646,-0.17089 0.25431,-0.5843 -0.0964,-1.24023 0.0203,-0.0114 -0.0204,-0.13101 -0.12207,-0.35889 0.21646,-0.41828 0.3247,-0.65754 0.3247,-0.71777 0,-8.1e-4 -0.0317,-0.40974 -0.0952,-1.22681 0,-0.0114 -0.0448,-0.1066 -0.13428,-0.28564 -0.0895,-0.17903 -0.13428,-0.31941 -0.13428,-0.42114 0,-0.1359 0.33773,-0.35562 1.01319,-0.65918 -0.59896,0.57211 -0.89844,0.63192 -0.89844,0.17944 l 0,-2.31689 c 0,-0.0814 0.0297,-0.21606 0.0891,-0.40406 0.0594,-0.18797 0.0871,-0.28278 0.083,-0.28442 0,0.0423 -0.0191,0.0283 -0.0574,-0.0421 -0.0383,-0.0704 0.0858,-0.15847 0.37231,-0.26428 0.28645,-0.20994 0.16235,-0.50006 -0.37231,-0.87036 -10e-6,-0.0976 -0.0126,-0.29234 -0.0379,-0.58411 -0.0252,-0.29173 -0.0378,-0.4376 -0.0378,-0.43762 l 0,-1.55517 c 0,-0.061 -0.0895,-0.24779 -0.26855,-0.56031 0.0513,-0.17901 0.0142,-0.43211 -0.11109,-0.75927 -0.013,-0.17495 -0.057,-0.41218 -0.13183,-0.71167 -0.0692,-0.0781 -0.19247,-0.2429 -0.36987,-0.49439 -0.0537,-0.13426 -0.14608,-0.33242 -0.2771,-0.59448 -0.19451,-0.30109 -0.36337,-0.48745 -0.5066,-0.55908 -0.29134,-0.0757 -0.81543,-0.25267 -1.57226,-0.53101 0.0488,-0.42071 0.15788,-0.86464 0.32715,-1.33179 l 0.48584,0 c 0.0423,3e-5 0.16601,0.0135 0.37109,0.0403 0.20508,0.0269 0.46102,0.0391 0.76782,0.0366 z"
           inkscape:connector-curvature="0" />
        <path
           id="path3879"
           style="fill:#000000;fill-opacity:1;stroke:none"
           d="m 679.95178,195.74655 -0.35766,0.21118 -0.57373,-0.38696 0.26977,-0.91186 c 0.67381,0.7251 0.89435,1.08765 0.66162,1.08764 z m 7.31934,-14.68872 c -0.51924,0.0773 -0.97537,0.15668 -1.36841,0.23804 -0.3638,0.10582 -0.68362,0.39024 -0.95947,0.85327 -0.32067,0.5705 -0.5233,1.17393 -0.60791,1.8103 -0.16197,1.14341 -0.24295,2.08254 -0.24292,2.81738 -3e-5,0.12372 0.0248,0.69277 0.0745,1.70716 0.0496,1.01442 0.0757,1.55621 0.0781,1.62536 l 0,3.04444 c -3e-5,0.0326 0.0223,0.15748 0.0671,0.37475 0.0447,0.2173 0.0578,0.40692 0.0391,0.56885 -0.0733,1.51124 -0.10867,2.35841 -0.1062,2.54151 -3e-5,0.0871 0.025,0.28585 0.0751,0.59631 0.05,0.31047 0.0763,0.5011 0.0787,0.5719 l 0,5.8789 c -2e-5,-0.10253 -0.0157,-0.13631 -0.047,-0.10131 -0.0314,0.035 0.003,0.22949 0.10437,0.58349 -0.89358,-0.32633 -1.43883,-0.35929 -1.63575,-0.0989 -0.65594,0.26041 -1.08644,0.29866 -1.2915,0.11474 -0.90334,-0.8374 -2.23675,-2.30143 -4.00024,-4.39209 -0.33368,-0.48502 -0.77151,-1.04736 -1.31348,-1.68701 -0.58189,-0.56803 -1.31797,-1.34073 -2.20825,-2.31812 -0.2287,-0.38003 -0.62217,-0.96231 -1.18042,-1.74682 -1.1369,-1.37694 -2.74497,-3.40127 -4.82422,-6.073 -0.25147,-0.19448 -0.66529,-0.57209 -1.24146,-1.13281 -0.0228,-0.15542 -0.0513,-0.27749 -0.0854,-0.36621 -0.16521,-0.26203 -0.34059,-0.55866 -0.52613,-0.8899 0.11474,0.0244 0.0289,0.0924 -0.25757,0.20386 -0.28646,-0.27342 -0.0562,0.35931 0.69092,1.8982 0.0171,0.12045 0.005,0.26633 -0.0354,0.43762 -0.0407,0.17132 -0.0586,0.26714 -0.0537,0.28747 -10e-6,0.59898 -0.0498,1.4083 -0.14954,2.42798 -0.0997,1.01971 -0.14832,1.51897 -0.14587,1.4978 l 0.42969,2.68067 c -1e-5,0.33285 0.009,1.04757 0.0269,2.14416 0.0179,1.09661 0.0281,1.67787 0.0305,1.74378 -10e-6,2.43083 0.81217,3.70605 2.43652,3.82568 0.20589,-0.002 0.35013,0.0779 0.43274,0.24109 0.0826,0.16317 0.16214,0.28219 0.23865,0.35706 0.022,0.38899 -0.057,0.76131 -0.23682,1.11694 l -6.958,0 c -0.007,0 -0.22299,0.0352 -0.64942,0.10559 -0.42643,0.0704 -0.68237,0.10559 -0.76782,0.10559 l -0.50415,0 c -0.27018,-0.26774 -0.40527,-0.46834 -0.40527,-0.60181 0,-0.59407 0.22257,-1.01236 0.66772,-1.25488 0.35644,-0.10905 0.82641,-0.29174 1.40991,-0.54809 0.51188,-0.28239 0.82153,-0.59164 0.92896,-0.92774 0.33202,-2.07519 0.41585,-3.27677 0.25146,-3.60474 -0.11638,-0.29377 -0.12533,-0.56924 -0.0269,-0.82641 -10e-6,1e-5 0.0338,-0.005 0.10132,-0.0159 -10e-6,1e-5 -0.0354,-0.008 -0.10621,-0.0244 -0.0187,-0.21972 -0.0153,-0.50923 0.0104,-0.86853 0.0256,-0.35929 0.0385,-0.61136 0.0385,-0.75623 0,-0.13427 -0.0352,-0.41849 -0.10559,-0.85266 -0.0704,-0.43415 0.0376,-0.76273 0.3241,-0.98572 0.28645,-0.0692 0.16886,-0.45043 -0.35278,-1.1438 0.007,0.0301 -0.0501,-0.13833 -0.17212,-0.50537 l 0.177,-0.25268 c 8.1e-4,-0.002 0.008,-0.10375 0.0208,-0.3064 0.0211,0.0277 0.0216,0.0606 10e-4,0.0989 -0.18392,-1.48518 -0.27588,-2.49307 -0.27588,-3.02369 l 0,-2.6184 c 0,1e-5 -0.0224,-0.37718 -0.0671,-1.1316 -0.0448,-0.75437 -0.0671,-1.3045 -0.0671,-1.65039 0,-0.0846 0.0224,-0.18471 0.0671,-0.30029 0.0448,-0.11554 0.0663,-0.14972 0.0647,-0.10254 -0.82194,-0.87481 -1.96493,-1.26137 -3.42895,-1.15967 l -0.34058,-0.32592 0,-0.92286 c 0.28646,-0.33933 0.77433,-0.509 1.46362,-0.50903 8.1e-4,3e-5 0.50049,0.0263 1.49903,0.0787 0.99853,0.0525 1.52668,0.0775 1.58447,0.0751 0.10416,2e-5 0.59061,-0.025 1.45935,-0.0751 0.86873,-0.05 1.33971,-0.0763 1.41296,-0.0787 0.37516,3e-5 0.61157,0.0248 0.70923,0.0745 0.24657,0.0879 0.7023,0.63072 1.36719,1.62842 1.05956,1.61868 2.61921,3.74514 4.67895,6.3794 0.44107,0.56072 1.12833,1.43149 2.06177,2.6123 -0.15301,0.92612 -0.13673,1.38917 0.0488,1.38916 -0.0212,1e-5 0.0447,-0.0382 0.19775,-0.11474 0.15298,-0.0765 0.29784,-0.11474 0.43457,-0.11475 0.33527,1e-5 0.68195,0.30234 1.04004,0.90698 0.13996,0.24415 0.26447,0.46429 0.37354,0.6604 0.93422,0.75522 1.53603,1.36517 1.80542,1.82984 0.0553,0.23275 0.14199,0.54566 0.26001,0.93872 -0.0139,-0.0187 -0.0631,-0.0281 -0.14771,-0.0281 -0.0431,1e-5 -0.0283,-0.0183 0.0446,-0.0549 0.0728,-0.0366 0.22316,-0.0692 0.45105,-0.0977 0.45733,0.48992 0.90167,1.03232 1.33301,1.6272 -0.15221,0.002 -0.2283,0.037 -0.22828,0.10376 -2e-5,-0.0195 -0.0255,-0.10599 -0.0763,-0.2594 -0.0509,-0.15339 -0.0763,-0.28381 -0.0763,-0.39124 l 0,-2.04956 c -3e-5,-0.0228 -0.01,-0.0946 -0.0287,-0.21545 -0.0191,-0.12084 -0.0287,-0.31269 -0.0287,-0.57556 0.0521,-0.24739 0.0903,-0.56192 0.11475,-0.9436 -0.0602,-0.33365 -0.14203,-0.86506 -0.24536,-1.59424 -0.0277,-0.13752 -0.0155,-0.35664 0.0366,-0.65735 0.0521,-0.30069 0.0769,-0.45918 0.0745,-0.47547 -2e-5,-0.0106 -0.0191,-0.0958 -0.0574,-0.25573 -0.0383,-0.1599 -0.0574,-0.27729 -0.0574,-0.35218 -0.0253,-0.24656 -0.0253,-0.58063 0,-1.00219 0.0252,-0.4899 0.0378,-0.81501 0.0378,-0.97534 -2e-5,-0.0179 -0.0287,-0.10375 -0.0861,-0.25757 -0.0574,-0.15379 -0.0926,-0.28807 -0.10559,-0.40284 -2e-5,2e-5 0.0256,-0.19244 0.0769,-0.57739 0.013,-0.0635 -0.009,-0.23598 -0.0665,-0.51758 -0.0574,-0.28155 -0.0861,-0.51349 -0.0861,-0.6958 -2e-5,-0.0887 0.0254,-0.21462 0.0763,-0.3778 0.0508,-0.16315 0.0698,-0.25816 0.0568,-0.28504 -0.0765,-0.61114 -0.20591,-1.36391 -0.38818,-2.2583 -0.13593,-0.50453 -0.86794,-0.87237 -2.19605,-1.10351 0.0252,-0.40119 -4.2e-4,-0.77838 -0.0769,-1.1316 0.31818,-0.29538 0.86627,-0.44309 1.64429,-0.44311 l 3.63647,0.52856 c -0.36705,0.258 0.19529,0.0904 1.68701,-0.50293 0.78855,-0.0553 1.50998,0.0293 2.16431,0.25391 z"
           inkscape:connector-curvature="0" />
        <path
           id="path3881"
           style="fill:#000000;fill-opacity:1;stroke:none"
           d="m 713.90808,191.96725 c -3e-5,0.71535 -0.0232,1.30129 -0.0696,1.75782 -0.13024,0.30111 -0.26289,0.74708 -0.39795,1.33789 -0.0253,0.62094 -0.1697,1.30412 -0.43335,2.04956 -0.21161,0.2653 -0.50987,0.6775 -0.89477,1.23657 -0.10013,0.3768 -0.40164,0.95622 -0.90454,1.73828 -0.51191,0.46387 -1.10354,1.0669 -1.77491,1.80908 -0.1522,0.0505 -0.29136,0.10702 -0.41748,0.16968 -0.14244,0.13184 -0.44517,0.35889 -0.9082,0.68115 -2.16718,1.14991 -4.22853,1.8038 -6.18408,1.96167 l -2.55738,-0.39062 c -0.26124,-0.26042 -0.35767,-0.16968 -0.2893,0.27222 -1.3729,-0.0374 -2.41578,-0.23479 -3.12866,-0.59205 -0.15138,-0.0326 -0.39349,-0.0977 -0.72632,-0.19531 -0.52329,-0.20914 -1.32732,-0.59163 -2.41211,-1.14746 -1.25164,-0.79508 -2.42554,-1.91691 -3.52173,-3.36548 -0.6307,-0.8317 -1.17961,-1.88557 -1.64673,-3.16162 -0.44678,-1.2036 -0.69702,-2.21678 -0.75073,-3.03955 -0.0895,-1.39159 -0.0358,-2.76284 0.16113,-4.11377 0.0822,-0.17902 0.18758,-0.42316 0.31616,-0.73242 0.0708,-0.35236 0.20874,-0.91877 0.41382,-1.69922 0.30273,-0.48175 0.67668,-1.13768 1.12183,-1.96777 0.0374,-0.083 0.0562,-0.24046 0.0562,-0.47241 0.29297,-0.22704 0.48177,-0.28929 0.56641,-0.18677 -0.0586,0.061 -0.12004,-0.15094 -0.18433,-0.63599 0.33121,-0.11554 0.59285,-0.22499 0.78491,-0.32837 0.0887,-0.23272 0.35563,-0.57167 0.80078,-1.01684 0.70556,-0.37677 1.88924,-0.99038 3.55103,-1.84082 0.42805,-0.2075 0.96434,-0.38491 1.60889,-0.53223 1.59178,-0.36537 2.68472,-0.54807 3.2788,-0.5481 l 1.49292,0 c 1.18651,3e-5 2.21963,0.11437 3.09937,0.34302 0.46792,0.13268 1.47825,0.49929 3.03101,1.09985 0.34258,0.21731 0.85853,0.54283 1.54785,0.97657 1.04896,0.67466 1.99338,1.58246 2.83325,2.72339 0.76169,1.0425 1.25079,1.98488 1.46728,2.82714 0.096,0.13186 0.22703,0.34996 0.39307,0.6543 0.29294,0.8008 0.46018,1.98081 0.50171,3.54004 0.002,0.022 0.0323,0.12534 0.0897,0.31006 0.0574,0.18474 0.086,0.34425 0.0861,0.47851 z m -5.10986,0.52857 c -0.11314,-1.57714 -0.4171,-3.00902 -0.91187,-4.29566 -0.63723,-1.67315 -1.25694,-2.93658 -1.85913,-3.79028 -1.43231,-1.39646 -2.8349,-2.20701 -4.20776,-2.43164 -1.36151,-0.22947 -2.2453,-0.31085 -2.65137,-0.24414 -1.04575,0.13104 -1.91245,0.34914 -2.6001,0.6543 -0.0798,0.0334 -0.60344,0.33856 -1.57104,0.91552 -0.0456,0.0887 -0.19736,0.27265 -0.45532,0.55176 -0.17417,0.0431 -0.27304,0.0692 -0.29663,0.0781 -0.21567,0.28159 -0.49806,0.67832 -0.84717,1.19018 -0.0545,0.16522 -0.13469,0.37722 -0.24048,0.63599 -0.21404,0.34263 -0.41342,0.69338 -0.59815,1.05225 -0.11556,0.46307 -0.29053,1.14707 -0.5249,2.052 0.0122,0.33286 0.007,0.8659 -0.0171,1.59912 0.002,0.0749 -0.022,0.16949 -0.0732,0.28381 -0.0513,0.11435 -0.0814,0.13124 -0.0903,0.0507 0.17577,0.8187 0.44189,2.03289 0.79834,3.64258 -0.0448,0.13998 -0.07,0.23031 -0.0757,0.271 0.0553,0.10743 0.17863,0.33773 0.36988,0.69091 0.0146,0.19126 0.0492,0.40244 0.10376,0.63355 0.49153,1.00749 0.75479,1.52466 0.78979,1.55151 0.37922,0.65919 0.88215,1.27076 1.50879,1.83472 0.0757,0.0724 0.17659,0.32186 0.30274,0.74829 -0.13429,-0.0317 0.0374,-0.007 0.51513,0.0732 0.67382,0.61931 1.13484,1.00505 1.38306,1.15723 0.91389,0.5485 2.53742,0.71777 4.8706,0.50781 0.1896,-0.0586 0.4488,-0.13834 0.77759,-0.23926 0.40607,-0.0863 0.97451,-0.28238 1.70532,-0.58838 0.16356,-0.15136 0.39102,-0.34098 0.68238,-0.56884 1.19708,-0.74219 1.91241,-1.67155 2.14599,-2.78809 0.16356,-0.19775 0.31126,-0.39957 0.44312,-0.60547 0.0244,-0.23437 0.0659,-0.54076 0.12451,-0.91919 0.10414,-0.10416 0.17657,-0.20018 0.21729,-0.28808 0.0219,-0.2539 0.0838,-0.8732 0.18554,-1.85791 0.0895,-0.76985 0.12164,-1.28905 0.0964,-1.55762 z"
           inkscape:connector-curvature="0" />
      </g>
    </g>
    <g
       id="g3962"
       transform="matrix(0.75,0,0,0.75,436.37594,-62.562231)"
       style="stroke:none">
      <g
         transform="translate(-259.21529,0.6875)"
         id="text4135"
         style="font-size:40px;font-style:normal;font-variant:normal;font-weight:bold;font-stretch:normal;text-align:start;line-height:125%;letter-spacing:0px;word-spacing:0px;writing-mode:lr-tb;text-anchor:start;fill:#000000;fill-opacity:1;stroke:none;font-family:Ringbearer;-inkscape-font-specification:Ringbearer Bold">
        <path
           id="path3854"
           style="fill:#000000;fill-opacity:1;stroke:none"
           d="m 563.58582,120.78058 c 0.14483,0.93345 0.0618,2.97691 -0.24903,6.13037 -0.11884,1.12469 -0.58759,2.48008 -1.40625,4.06616 -0.78534,1.51613 -1.59873,2.67417 -2.44018,3.47412 -0.76662,0.72348 -1.81236,1.23455 -3.13721,1.53321 -0.30031,0.20427 -0.79673,0.44027 -1.48926,0.708 -1.27443,0.13185 -2.84873,0.19776 -4.7229,0.19776 0.0879,0 0.10985,0.0403 0.0659,0.12085 0.0464,0.73405 0.11433,3.32682 0.20386,7.77832 0.0122,0.81461 0.12938,1.93359 0.35156,3.35693 -10e-6,0.41422 0.0688,0.95947 0.2063,1.63574 0.27831,0.68034 0.73119,1.16902 1.35864,1.46607 0.52408,0.22053 1.15803,0.47851 1.90186,0.77392 0.0219,0.4191 0.006,0.86303 -0.0488,1.33179 -0.61281,0.36132 -1.19346,0.54198 -1.74195,0.54199 l -2.37426,0 c -0.0773,-1e-5 -0.30478,-0.0543 -0.68238,-0.16296 -0.37761,-0.10865 -0.62256,-0.16297 -0.73486,-0.16296 -0.43295,-10e-6 -1.14747,-0.0108 -2.14355,-0.0323 -0.9961,-0.0216 -1.49415,-0.0324 -1.49414,-0.0324 l -2.27906,0.39062 c -0.32308,-1e-5 -0.72754,-0.15585 -1.21338,-0.46753 -0.0399,-0.15951 -0.0757,-0.33488 -0.10742,-0.52612 -0.0317,-0.19125 -0.0476,-0.43946 -0.0476,-0.74463 0.92285,-0.35727 1.45711,-0.59205 1.60279,-0.70434 0.49641,-0.32716 0.90291,-0.8899 1.21948,-1.68824 0.13753,-0.3418 0.23071,-1.28947 0.27954,-2.84301 0.0146,-0.28891 0.0724,-0.96518 0.17334,-2.02881 0.0887,-0.97901 0.13305,-1.72119 0.13306,-2.22657 -10e-6,-2.68554 -10e-6,-4.02831 0,-4.02832 0.013,-0.29377 4e-4,-0.74502 -0.0378,-1.35376 -0.0252,-0.68195 -0.0379,-1.17308 -0.0379,-1.47338 0,-1.2679 0.18514,-2.2648 0.55542,-2.99073 -0.0985,-0.0578 -0.23763,-0.33934 -0.41748,-0.84472 -0.118,-1.19791 -0.177,-2.44099 -0.177,-3.72925 0,-0.1131 0.0448,-0.39977 0.13428,-0.85999 0.0895,-0.46018 0.13427,-0.81805 0.13428,-1.0736 -10e-6,-0.16437 -0.0191,-0.35603 -0.0574,-0.57496 -0.24252,-0.90492 -0.27466,-2.09348 -0.0964,-3.56567 0.0513,-0.37758 -0.0509,-1.63572 -0.3064,-3.77441 0,-0.68357 -0.12167,-1.56085 -0.36499,-2.63184 -0.26042,-0.45163 -0.59855,-0.74216 -1.0144,-0.87158 -0.40772,-0.1196 -0.95012,-0.28724 -1.6272,-0.50293 0,-1.14987 0.12288,-1.49574 0.36865,-1.0376 -0.26204,-0.59242 -0.13835,-0.90044 0.3711,-0.92407 0.60465,-0.0504 1.59423,-0.15988 2.96875,-0.32837 1.2565,-0.15459 1.91934,-0.23312 1.98852,-0.2356 l 2.89063,0 c 0.51756,4e-5 1.06362,-0.0669 1.63818,-0.2008 0.57453,-0.13384 1.08194,-0.20078 1.52222,-0.20081 0.51837,3e-5 1.18773,0.0684 2.00805,0.20508 0.56314,0.17826 1.32404,0.40286 2.28272,0.67383 0.0993,0.11559 0.2132,0.20796 0.34179,0.2771 1.51691,0.3345 2.88613,1.54869 4.10767,3.64258 0.78041,0.86835 1.32729,2.37429 1.64063,4.51782 z m -5.71656,3.71216 c -2e-5,-0.673 -0.0208,-1.08437 -0.0623,-1.23413 -0.75848,-2.86863 -1.38593,-4.68382 -1.88233,-5.44556 -0.93182,-1.43959 -2.13217,-2.1594 -3.60107,-2.15942 -0.24171,2e-5 -0.67262,0.0191 -1.29273,0.0574 -0.0261,3e-5 -0.10214,0.0493 -0.22827,0.1477 -0.23601,3.58727 -0.37843,6.48277 -0.42724,8.68653 0.0553,0.15627 0.12653,0.41587 0.21362,0.77881 -10e-6,0.68361 -0.0446,1.57981 -0.13367,2.68859 -0.0891,1.10882 -0.13368,1.99729 -0.13366,2.66541 -2e-5,0.82521 0.0464,1.65813 0.13916,2.49878 0.0146,0.0285 0.0126,0.0293 -0.006,0.002 l 2.05567,0 c 0.25633,0.0895 0.50047,0.13429 0.73242,0.13428 0.77147,1e-5 1.53278,-0.36986 2.28393,-1.10962 0.74624,-0.72346 1.20848,-1.32771 1.38672,-1.81275 0.63719,-1.73663 0.95579,-3.70278 0.95581,-5.89843 z"
           inkscape:connector-curvature="0" />
        <path
           id="path3856"
           style="fill:#000000;fill-opacity:1;stroke:none"
           d="m 589.17053,143.41241 c -0.17092,0.23275 -0.39472,0.47201 -0.67138,0.71778 -0.66491,0.36946 -1.16539,0.5542 -1.50147,0.5542 l -2.29858,0 c -0.82685,0 -1.44656,-0.0342 -1.85913,-0.10254 -0.34589,-0.12614 -0.78046,-0.27547 -1.30372,-0.448 -0.56723,-0.17822 -1.47991,-0.98185 -2.73803,-2.41089 -0.12534,-0.14241 -0.63885,-0.98632 -1.54053,-2.53174 -0.80079,-1.38508 -1.44126,-2.57242 -1.92139,-3.56201 -0.11475,-0.35562 -0.30437,-0.78612 -0.56884,-1.2915 -0.0204,-0.0342 -0.19574,-0.0334 -0.52613,0.002 -0.33692,0.0407 -0.67994,0.0802 -1.02905,0.11841 -0.44597,-0.0252 -1.0787,-0.0317 -1.89819,-0.0195 0.0521,1e-5 0.0867,-0.0142 0.10376,-0.0427 0.0464,0.3825 0.10822,1.90512 0.18554,4.56787 0.0122,0.47445 0.11637,1.1377 0.3125,1.98975 -10e-6,0.22461 0.0537,0.52368 0.16114,0.89722 0.20344,0.35075 0.54279,0.60709 1.01806,0.76904 0.48502,0.13997 1.06485,0.30762 1.7395,0.50293 0.0325,0.34749 0.0122,0.70272 -0.061,1.06567 -0.55177,0.22868 -1.05389,0.34302 -1.50635,0.34302 l -2.0105,0 c -0.0635,0 -0.25472,-0.0319 -0.57373,-0.0958 -0.31901,-0.0639 -0.52979,-0.0958 -0.63232,-0.0958 -0.37843,0 -0.98491,0.0319 -1.81946,0.0958 -0.83456,0.0639 -1.25183,0.0958 -1.25183,0.0958 l -1.96533,0 c -0.26123,0 -0.63436,-0.10417 -1.11939,-0.3125 0,-0.16439 -0.0159,-0.30375 -0.0476,-0.41809 -0.0317,-0.11434 -0.0476,-0.31393 -0.0476,-0.59876 0.82763,-0.22216 1.31917,-0.3719 1.47461,-0.44922 0.37923,-0.17415 0.69702,-0.4895 0.95337,-0.94604 0.0952,-0.17171 0.16642,-0.69865 0.21362,-1.58081 0,-0.18066 0.0448,-0.59 0.13428,-1.22803 0.0765,-0.58593 0.11474,-1.01643 0.11474,-1.2915 0,-1.77245 0.0189,-2.74169 0.0568,-2.90772 0.0378,-0.166 0.15319,-0.34585 0.34607,-0.53955 -0.0431,0.0252 -0.15056,-0.11799 -0.32227,-0.42968 -0.0789,-0.28483 -0.11841,-0.65877 -0.11841,-1.12183 l 0,-1.93359 c 0,0.0155 0.12288,-0.18025 0.36865,-0.58716 -0.0464,-0.11148 -0.13102,-0.92772 -0.2539,-2.44873 0.0212,0.0496 -4.1e-4,0.0338 -0.0647,-0.0476 -0.16114,-0.59487 -0.16276,-1.33421 -0.005,-2.21802 0.0464,-0.17983 -0.0383,-0.89353 -0.25391,-2.14111 -0.0122,-0.42072 -0.11434,-0.92324 -0.3064,-1.50757 -0.18961,-0.23354 -0.45491,-0.38369 -0.79589,-0.45044 -0.38331,-0.0895 -0.87199,-0.1961 -1.46607,-0.31982 0,-0.67706 0.12288,-0.93707 0.36865,-0.78003 -0.23112,-0.44269 -0.11108,-0.67747 0.36011,-0.70435 0.51921,-0.0252 1.3269,-0.0805 2.4231,-0.16601 1.11897,-0.1074 1.6988,-0.16233 1.7395,-0.1648 l 2.4707,0 c 0.44107,3e-5 0.90372,-0.0382 1.38794,-0.11475 0.4842,-0.0765 0.90901,-0.11472 1.27442,-0.11474 0.43049,2e-5 0.99811,0.0415 1.70288,0.12451 0.41665,0.0904 1.05223,0.22504 1.90674,0.40405 0.0944,0.0627 0.19977,0.11477 0.31616,0.15625 1.29148,0.20185 2.43976,0.8183 3.44482,1.84937 0.57941,0.60467 1.08397,1.63942 1.51367,3.10425 0.0146,0.2409 0.035,0.55706 0.061,0.94848 0.0276,0.34914 0.002,0.85329 -0.0769,1.51245 -0.17336,1.4079 -0.51719,2.48822 -1.03149,3.24097 -0.4411,0.6478 -1.25531,1.52223 -2.44263,2.62329 -0.004,0.0993 0.0285,0.21038 0.0977,0.33325 0.8146,1.56414 1.6223,3.11484 2.4231,4.6521 0.9391,1.64145 2.07029,3.03142 3.39355,4.16992 0.074,0.0651 0.48948,0.20346 1.24634,0.41504 0.4321,0.11557 0.78936,0.14527 1.07178,0.0891 0.55417,-0.10987 1.05873,-0.13916 1.51367,-0.0879 0.087,0.29867 0.13059,0.58798 0.13061,0.86792 z m -11.35376,-16.50634 c -10e-6,-0.36131 -0.0179,-0.58063 -0.0537,-0.65796 -0.63478,-1.68944 -1.19142,-2.85154 -1.66992,-3.48633 -0.49074,-0.39956 -1.06406,-0.67706 -1.71997,-0.83252 -0.4712,-0.11147 -1.2317,-0.14158 -2.2815,-0.0903 -0.0464,0.007 -0.10051,0.0261 -0.16235,0.0586 -0.19288,2.06382 -0.31251,3.72683 -0.35889,4.98902 0.0391,0.0619 0.10335,0.22747 0.19288,0.49682 -10e-6,0.18475 -0.0598,0.93792 -0.17945,2.25952 -0.0732,0.80649 -0.0598,1.58205 0.0403,2.32666 -0.005,-0.006 -0.0199,-0.0244 -0.0452,-0.0537 l 1.73096,0 c 0.21646,0.0513 0.43211,0.0769 0.64697,0.0769 0.65835,1e-5 1.30044,-0.21524 1.92627,-0.64576 0.6258,-0.43048 0.99893,-0.76577 1.11938,-1.00585 0.54279,-1.01155 0.8142,-2.15656 0.81421,-3.43506 z"
           inkscape:connector-curvature="0" />
        <path
           id="path3858"
           style="fill:#000000;fill-opacity:1;stroke:none"
           d="m 597.18811,121.44098 c -0.0651,0.52411 -0.17946,1.03274 -0.34302,1.52588 -10e-6,2e-5 -0.46469,0.10093 -1.39404,0.30273 -0.3296,0.0782 -0.53834,0.22667 -0.62622,0.44556 -0.11069,0.16603 -0.23276,0.37071 -0.36621,0.61401 -0.0179,0.0643 -0.1762,0.77476 -0.47486,2.13135 l -0.0781,8.04688 c -0.0903,0.32959 -0.13225,0.47608 -0.12573,0.43945 -1e-5,1e-5 0.0427,0.12859 0.12817,0.38574 l -0.0403,3.08106 c -0.0847,0.38249 -0.0867,0.8903 -0.006,1.52343 0.0903,0.83659 0.25675,1.49089 0.49927,1.96289 0.0627,0.12208 0.25471,0.28036 0.57617,0.47486 0.55338,0.31901 1.26545,0.47119 2.13623,0.45654 -0.0195,0.48584 -0.13347,0.98877 -0.34179,1.50879 l -2.51953,0 c -0.0602,0 -0.28891,-0.0128 -0.68604,-0.0384 -0.39714,-0.0256 -0.60263,-0.0385 -0.61645,-0.0385 -0.0155,0 -0.17925,0.0128 -0.49134,0.0385 -0.3121,0.0256 -0.48686,0.0384 -0.52429,0.0384 -0.061,0 -0.19247,-0.0128 -0.39429,-0.0384 -0.20183,-0.0256 -0.31291,-0.0385 -0.33325,-0.0385 -0.006,0 -0.0769,0.0124 -0.21362,0.0372 -0.13673,0.0248 -0.2352,0.038 -0.29541,0.0397 l -4.00635,0.0952 c -0.63395,0 -0.95093,-0.25756 -0.95093,-0.7727 0,-0.4834 0.18962,-0.77881 0.56885,-0.88623 0.44515,-0.0846 0.87931,-0.16113 1.30249,-0.22949 0.31331,-0.0676 0.50374,-0.15951 0.57129,-0.27588 0.0456,-0.13428 0.15014,-0.45207 0.31372,-0.95337 0.45084,0.0195 0.7198,0.0582 0.80689,0.11596 0.0635,-0.30354 0.0952,-0.51187 0.0952,-0.625 0,-0.0781 -0.0639,-0.26204 -0.19165,-0.55175 0.10172,-0.27262 0.12858,-0.45044 0.0806,-0.53345 -0.0439,-0.1123 -0.1526,-0.3068 -0.32593,-0.5835 -0.20671,-0.33446 -0.16683,-0.55704 0.11963,-0.66772 0.28645,-0.17089 0.25431,-0.5843 -0.0964,-1.24024 0.0203,-0.0114 -0.0204,-0.13101 -0.12207,-0.35888 0.21647,-0.41829 0.3247,-0.65755 0.32471,-0.71778 -10e-6,-8e-4 -0.0317,-0.40974 -0.0952,-1.2268 0,-0.0114 -0.0448,-0.1066 -0.13427,-0.28565 -0.0895,-0.17902 -0.13428,-0.3194 -0.13428,-0.42114 0,-0.13589 0.33772,-0.35562 1.01318,-0.65918 -0.59896,0.57211 -0.89844,0.63193 -0.89843,0.17944 l 0,-2.31689 c -10e-6,-0.0814 0.0297,-0.21605 0.0891,-0.40405 0.0594,-0.18798 0.0871,-0.28279 0.083,-0.28443 0,0.0423 -0.0191,0.0283 -0.0574,-0.0421 -0.0382,-0.0704 0.0859,-0.15848 0.37232,-0.26428 0.28645,-0.20995 0.16234,-0.50007 -0.37232,-0.87036 0,-0.0976 -0.0126,-0.29235 -0.0378,-0.58411 -0.0252,-0.29173 -0.0379,-0.43761 -0.0378,-0.43762 l 0,-1.55518 c -10e-6,-0.061 -0.0895,-0.24778 -0.26856,-0.5603 0.0513,-0.17902 0.0142,-0.43211 -0.11108,-0.75928 -0.013,-0.17495 -0.057,-0.41217 -0.13184,-0.71167 -0.0692,-0.0781 -0.19246,-0.2429 -0.36987,-0.49438 -0.0537,-0.13426 -0.14608,-0.33242 -0.2771,-0.59449 -0.1945,-0.30108 -0.36336,-0.48744 -0.50659,-0.55908 -0.29134,-0.0757 -0.81543,-0.25266 -1.57227,-0.531 0.0488,-0.42072 0.15788,-0.86465 0.32715,-1.33179 l 0.48584,0 c 0.0423,2e-5 0.16602,0.0135 0.3711,0.0403 0.20507,0.0269 0.46101,0.0391 0.76782,0.0366 z"
           inkscape:connector-curvature="0" />
        <path
           id="path3860"
           style="fill:#000000;fill-opacity:1;stroke:none"
           d="m 618.41492,135.54987 -0.35767,0.21118 -0.57373,-0.38697 0.26978,-0.91186 c 0.6738,0.72511 0.89434,1.08765 0.66162,1.08765 z m 7.31933,-14.68872 c -0.51923,0.0773 -0.97537,0.15667 -1.36841,0.23803 -0.36379,0.10582 -0.68362,0.39024 -0.95947,0.85327 -0.32066,0.5705 -0.5233,1.17393 -0.60791,1.81031 -0.16197,1.14341 -0.24294,2.08253 -0.24292,2.81738 -2e-5,0.12371 0.0248,0.69277 0.0745,1.70715 0.0496,1.01442 0.0757,1.55621 0.0781,1.62537 l 0,3.04443 c -3e-5,0.0326 0.0223,0.15748 0.0671,0.37476 0.0447,0.21729 0.0578,0.40691 0.0391,0.56885 -0.0733,1.51123 -0.10867,2.3584 -0.1062,2.5415 -3e-5,0.0871 0.025,0.28586 0.0751,0.59631 0.05,0.31048 0.0763,0.50111 0.0787,0.5719 l 0,5.87891 c -3e-5,-0.10254 -0.0157,-0.13631 -0.047,-0.10132 -0.0314,0.035 0.003,0.22949 0.10437,0.5835 -0.89358,-0.32634 -1.43882,-0.3593 -1.63574,-0.0989 -0.65595,0.26042 -1.08645,0.29866 -1.2915,0.11475 -0.90335,-0.83741 -2.23676,-2.30143 -4.00025,-4.39209 -0.33368,-0.48503 -0.7715,-1.04736 -1.31348,-1.68702 -0.58188,-0.56802 -1.31796,-1.34073 -2.20825,-2.31811 -0.22869,-0.38004 -0.62216,-0.96231 -1.18042,-1.74683 -1.13689,-1.37694 -2.74496,-3.40127 -4.82422,-6.073 -0.25147,-0.19448 -0.66529,-0.57208 -1.24145,-1.13281 -0.0228,-0.15542 -0.0513,-0.27749 -0.0855,-0.36621 -0.16521,-0.26202 -0.34058,-0.55866 -0.52612,-0.88989 0.11474,0.0244 0.0289,0.0924 -0.25757,0.20386 -0.28647,-0.27342 -0.0562,0.35931 0.69092,1.89819 0.0171,0.12046 0.005,0.26633 -0.0354,0.43762 -0.0407,0.17132 -0.0586,0.26715 -0.0537,0.28748 -10e-6,0.59897 -0.0499,1.4083 -0.14954,2.42798 -0.0997,1.0197 -0.14832,1.51897 -0.14588,1.4978 l 0.42969,2.68066 c -1e-5,0.33286 0.009,1.04758 0.0269,2.14417 0.0179,1.0966 0.0281,1.67786 0.0305,1.74377 -10e-6,2.43083 0.81216,3.70606 2.43652,3.82569 0.20588,-0.002 0.35013,0.0779 0.43274,0.24108 0.0826,0.16317 0.16214,0.28219 0.23865,0.35706 0.022,0.389 -0.057,0.76131 -0.23682,1.11694 l -6.95801,0 c -0.007,0 -0.22298,0.0352 -0.64941,0.10559 -0.42644,0.0704 -0.68238,0.10559 -0.76782,0.1056 l -0.50416,0 c -0.27018,-0.26775 -0.40527,-0.46835 -0.40527,-0.60181 0,-0.59408 0.22257,-1.01237 0.66773,-1.25488 0.35644,-0.10905 0.82641,-0.29175 1.40991,-0.5481 0.51188,-0.28239 0.82153,-0.59163 0.92895,-0.92773 0.33203,-2.07519 0.41585,-3.27677 0.25147,-3.60474 -0.11638,-0.29378 -0.12533,-0.56925 -0.0269,-0.82642 0,1e-5 0.0338,-0.005 0.10132,-0.0159 0,1e-5 -0.0354,-0.008 -0.1062,-0.0244 -0.0187,-0.21972 -0.0153,-0.50923 0.0104,-0.86853 0.0256,-0.35929 0.0384,-0.61136 0.0385,-0.75623 -10e-6,-0.13426 -0.0352,-0.41848 -0.10559,-0.85266 -0.0704,-0.43415 0.0376,-0.76272 0.32409,-0.98571 0.28646,-0.0692 0.16886,-0.45043 -0.35278,-1.1438 0.007,0.0301 -0.0501,-0.13834 -0.17212,-0.50537 l 0.177,-0.25269 c 8.1e-4,-0.002 0.008,-0.10375 0.0208,-0.3064 0.0212,0.0277 0.0216,0.0606 10e-4,0.0989 -0.18393,-1.48517 -0.27589,-2.49307 -0.27588,-3.02368 l 0,-2.61841 c -1e-5,2e-5 -0.0224,-0.37718 -0.0671,-1.13159 -0.0448,-0.75438 -0.0671,-1.30451 -0.0671,-1.65039 0,-0.0846 0.0224,-0.18471 0.0671,-0.3003 0.0448,-0.11553 0.0663,-0.14971 0.0647,-0.10253 -0.82195,-0.87482 -1.96493,-1.26137 -3.42896,-1.15967 l -0.34058,-0.32593 0,-0.92285 c 0.28646,-0.33933 0.77434,-0.50901 1.46363,-0.50903 8.1e-4,2e-5 0.50048,0.0263 1.49902,0.0787 0.99853,0.0525 1.52669,0.0775 1.58447,0.0751 0.10416,3e-5 0.59061,-0.025 1.45935,-0.0751 0.86873,-0.05 1.33972,-0.0763 1.41297,-0.0787 0.37515,2e-5 0.61156,0.0248 0.70923,0.0745 0.24657,0.0879 0.7023,0.63072 1.36718,1.62842 1.05956,1.61867 2.61921,3.74513 4.67896,6.37939 0.44106,0.56073 1.12832,1.43149 2.06177,2.61231 -0.15301,0.92612 -0.13674,1.38917 0.0488,1.38916 -0.0212,1e-5 0.0448,-0.0382 0.19776,-0.11475 0.15298,-0.0765 0.29783,-0.11473 0.43457,-0.11475 0.33527,2e-5 0.68195,0.30234 1.04004,0.90699 0.13995,0.24415 0.26446,0.46428 0.37353,0.6604 0.93423,0.75522 1.53603,1.36516 1.80542,1.82983 0.0553,0.23276 0.14199,0.54566 0.26001,0.93872 -0.0139,-0.0187 -0.0631,-0.0281 -0.1477,-0.0281 -0.0432,1e-5 -0.0283,-0.0183 0.0445,-0.0549 0.0728,-0.0366 0.22317,-0.0692 0.45105,-0.0976 0.45734,0.48991 0.90167,1.03231 1.33301,1.62719 -0.1522,0.002 -0.22829,0.037 -0.22827,0.10376 -2e-5,-0.0195 -0.0254,-0.10599 -0.0763,-0.2594 -0.0509,-0.15339 -0.0763,-0.2838 -0.0763,-0.39123 l 0,-2.04956 c -2e-5,-0.0228 -0.01,-0.0946 -0.0287,-0.21546 -0.0191,-0.12084 -0.0287,-0.31269 -0.0287,-0.57556 0.0521,-0.24738 0.0903,-0.56192 0.11474,-0.9436 -0.0602,-0.33365 -0.14203,-0.86506 -0.24536,-1.59424 -0.0277,-0.13752 -0.0155,-0.35663 0.0366,-0.65735 0.0521,-0.30068 0.0769,-0.45917 0.0745,-0.47546 -2e-5,-0.0106 -0.0191,-0.0958 -0.0574,-0.25574 -0.0383,-0.1599 -0.0574,-0.27729 -0.0574,-0.35217 -0.0253,-0.24657 -0.0253,-0.58063 0,-1.0022 0.0252,-0.48989 0.0378,-0.815 0.0378,-0.97534 -2e-5,-0.0179 -0.0287,-0.10374 -0.0861,-0.25757 -0.0574,-0.15379 -0.0926,-0.28807 -0.10559,-0.40283 -2e-5,2e-5 0.0256,-0.19245 0.0769,-0.57739 0.013,-0.0635 -0.009,-0.23599 -0.0665,-0.51758 -0.0574,-0.28156 -0.0861,-0.51349 -0.0861,-0.6958 -2e-5,-0.0887 0.0254,-0.21462 0.0763,-0.37781 0.0508,-0.16315 0.0698,-0.25816 0.0568,-0.28503 -0.0765,-0.61115 -0.20592,-1.36392 -0.38819,-2.2583 -0.13592,-0.50454 -0.86794,-0.87238 -2.19604,-1.10352 0.0252,-0.40118 -4.3e-4,-0.77838 -0.0769,-1.13159 0.31818,-0.29539 0.86628,-0.44309 1.64429,-0.44312 l 3.63647,0.52857 c -0.36704,0.258 0.19529,0.0904 1.68702,-0.50293 0.78854,-0.0553 1.50998,0.0293 2.1643,0.2539 z"
           inkscape:connector-curvature="0" />
        <path
           id="path3862"
           style="fill:#000000;fill-opacity:1;stroke:none"
           d="m 644.46228,119.95172 c -0.0806,0.56643 -0.1697,1.17556 -0.26733,1.82739 l 0,4.80957 c -0.30601,2e-5 -0.54141,0.0192 -0.70618,0.0574 -0.16481,0.0383 -0.41933,0.0574 -0.76355,0.0574 -0.0757,-0.30597 -0.20428,-1.17837 -0.38574,-2.61719 -0.0871,-0.70636 -0.38414,-1.228 -0.89112,-1.56494 -0.22381,-0.18634 -0.79713,-0.16599 -1.71997,0.061 -0.54038,0.0529 -1.27849,0.1701 -2.21435,0.35156 -0.19045,0.0635 -0.31252,0.19126 -0.36621,0.3833 -0.20428,0.76255 -0.22056,1.91144 -0.0488,3.44665 0.1717,1.53526 -0.0204,3.66437 -0.57617,6.38733 -0.28403,-0.28726 -0.0578,0.58717 0.67871,2.6233 -0.0521,0.6307 -0.0655,1.53321 -0.0403,2.70751 0.12206,0.57048 0.32388,1.55152 0.60547,2.94312 0.0952,0.47852 0.41666,0.78532 0.96436,0.92041 0.58185,0.13998 1.27969,0.29867 2.0935,0.47607 -1e-5,0.47852 -0.21689,0.99122 -0.65063,1.53809 l -11.07788,0 c -0.38819,0 -0.58228,-0.20711 -0.58228,-0.62134 0,-0.0464 0.013,-0.25106 0.0391,-0.61401 0.5607,-0.12533 1.21825,-0.32715 1.97265,-0.60547 0.57535,-0.30924 1.00585,-0.68685 1.29151,-1.13281 0.0496,-0.0781 0.11718,-0.59896 0.20263,-1.5625 0.0496,-1.73828 0.11271,-3.5673 0.18921,-5.48706 l 0,-7.28516 0.85327,0.022 c -0.12289,0.0431 -0.19003,0.0985 -0.20141,0.16602 -0.16033,-0.30353 -0.37761,-0.88255 -0.65186,-1.73706 -0.0212,-0.12124 -0.1119,-0.98468 -0.27221,-2.59033 l -3.14698,0 c -0.26612,2e-5 -0.63497,0.1756 -1.10656,0.52673 -0.47161,0.35118 -0.72938,0.6354 -0.77332,0.85266 -0.26449,1.12388 -0.53589,1.92222 -0.81421,2.39502 -0.20182,0.34344 -0.75562,0.51515 -1.66138,0.51514 0,-0.28889 -0.024,-0.55541 -0.072,-0.79956 -0.0415,-0.27424 -0.0346,-0.53221 0.0208,-0.77393 0.12533,-0.42885 0.25757,-1.1861 0.39673,-2.27173 0.16602,-1.30938 0.30029,-2.2359 0.40284,-2.77954 -1e-5,2e-5 0.19734,-0.11391 0.59204,-0.3418 -0.38249,-0.51104 0.92895,-0.76657 3.93432,-0.7666 0.76741,3e-5 1.96756,0.13593 3.60047,0.40772 1.63288,0.27183 2.41148,0.40652 2.33581,0.40405 l 3.1604,0 c -0.29949,0.26044 0.0598,0.0684 1.07788,-0.57617 0.83169,-0.12612 1.64102,-0.20831 2.42798,-0.24658 0.30353,-0.0399 0.60423,-0.0789 0.9021,-0.11719 0.5851,-0.0423 1.00136,0.16156 1.24878,0.61157 z"
           inkscape:connector-curvature="0" />
        <path
           id="path3864"
           style="fill:#000000;fill-opacity:1;stroke:none"
           d="m 665.06775,137.31256 c -0.044,0.89519 -0.13145,1.96208 -0.26245,3.20068 -0.17825,0.38575 -0.37071,0.84962 -0.57739,1.39161 -0.0554,0.27344 -0.15343,0.63924 -0.29419,1.09741 -0.0643,0.17822 -0.23847,0.43457 -0.52247,0.76904 -0.44191,0.54525 -0.83701,0.81787 -1.1853,0.81787 l -4.88403,0 c -0.10255,0 -0.68198,-0.0191 -1.73828,-0.0574 -1.05633,-0.0383 -1.62558,-0.0574 -1.70777,-0.0574 l -2.94921,0 c -0.10743,0 -0.51169,-0.0352 -1.21277,-0.10559 -0.7011,-0.0704 -1.08867,-0.1056 -1.16272,-0.1056 l -3.09204,0 -0.4773,-0.63598 c 0.22135,-0.38167 0.79834,-0.8549 1.73096,-1.41968 0.62011,-0.39306 0.93017,-0.82112 0.93017,-1.28418 l 0,-6.05102 c 0,-1.00178 0.1534,-2.31445 0.46021,-3.93799 -0.16602,-0.51106 -0.19817,-1.10717 -0.0964,-1.78833 -0.22949,-0.17577 -0.34424,-0.49478 -0.34423,-0.95703 -10e-6,-0.0667 0.12898,-0.61319 0.38696,-1.63941 0.01,-0.002 -0.0387,-0.0944 -0.14527,-0.27832 -0.14974,-0.284 -0.24699,-0.44472 -0.29174,-0.48218 -0.11964,-0.36456 -0.17335,-0.85406 -0.16114,-1.4685 0,-0.791 0,-1.21295 0,-1.26587 -0.0342,-0.38816 -0.10742,-0.69008 -0.21972,-0.90576 -0.15544,-0.30109 -0.41708,-0.5436 -0.78492,-0.72754 -0.35237,-0.15216 -0.80241,-0.37392 -1.35009,-0.66529 0.2596,-0.78204 0.59285,-1.1987 0.99975,-1.25 0.42562,0.0537 0.96802,0.0692 1.6272,0.0464 0.83821,0.0676 1.26098,0.0993 1.26831,0.0952 l 3.38989,-0.39063 c 0.0504,3e-5 0.44555,0.046 1.18531,0.13794 0.73973,0.092 1.27847,0.14325 1.61621,0.15381 0.18635,-0.002 1.45018,-0.0846 3.7915,-0.24658 0.56395,-0.039 2.06216,0.002 4.49463,0.12207 0.38816,0.26695 0.58225,0.56521 0.58228,0.89477 -3e-5,0.15058 -0.0413,0.3345 -0.12391,0.55176 -0.0826,0.21731 -0.12514,0.36094 -0.12756,0.43091 -0.0155,0.45575 -0.15301,1.88194 -0.4126,4.27856 -0.0952,0.19208 -0.47568,0.40692 -1.14135,0.64453 -0.23033,-0.28969 -0.54608,-1.0624 -0.94727,-2.31811 -0.2051,-0.64532 -0.57131,-0.99729 -1.09863,-1.05591 -0.28566,-0.0659 -0.57538,-0.13059 -0.86914,-0.19409 -0.32473,-0.0854 -0.55951,-0.10048 -0.70435,-0.0452 -0.60141,0.17418 -1.87054,0.19737 -3.80737,0.0696 -0.98715,-0.0765 -1.72364,-0.0594 -2.20948,0.0513 0.0293,-0.006 0.0391,0.005 0.0293,0.033 0.45898,1.5202 0.33365,2.85362 -0.37597,4.00025 0.31411,-0.34585 0.47118,-0.0309 0.47119,0.94482 -10e-6,0.1758 -0.0338,0.56357 -0.10132,1.16333 -0.0602,0.42808 -0.0732,0.76662 -0.0391,1.01563 0.004,0.0407 0.0395,0.0908 0.1062,0.15014 l 6.98608,0 c 0.17902,-0.061 0.37596,-0.12979 0.59082,-0.2063 0.24575,-0.0879 0.41055,-0.21116 0.49439,-0.36987 0.13588,-0.3548 0.41827,-0.8972 0.84716,-1.6272 0.78042,2e-5 1.27236,0.24986 1.47583,0.74951 -0.057,0.81382 -0.10988,1.77085 -0.15869,2.8711 -0.0138,0.78614 -0.10418,1.91041 -0.27099,3.3728 -0.11233,0.4297 -0.6063,0.59327 -1.48194,0.49072 -0.21974,-0.4077 -0.51678,-0.83251 -0.89111,-1.27441 -0.68442,-0.51594 -1.29111,-0.77392 -1.82007,-0.77393 l -2.64282,0 c -0.20591,1e-5 -0.55096,-0.0319 -1.03516,-0.0958 -0.48422,-0.0639 -0.82887,-0.0958 -1.03393,-0.0958 -0.48504,1e-5 -0.78289,0.12249 -0.89356,0.36743 -0.17742,0.38901 -0.26612,0.67873 -0.26611,0.86915 -10e-6,0.22624 0.0441,0.65328 0.13245,1.28112 0.0883,0.62786 0.12511,1.13465 0.11047,1.52039 -0.0138,0.20264 -0.0737,0.54322 -0.17944,1.02173 -0.10581,0.47852 -0.1587,0.85083 -0.1587,1.11694 0,0.19369 0.0191,0.35726 0.0574,0.49072 0.0643,0.22299 0.36742,0.52837 0.90942,0.91614 0.54198,0.38778 1.01073,0.61056 1.40625,0.66834 0.0879,0.0366 0.15705,0.0655 0.20752,0.0867 0.0773,0.022 0.14607,0.033 0.2063,0.033 l 3.17993,0 c 0.6494,0 1.22883,-0.11475 1.73828,-0.34424 0.53547,-0.25391 1.10594,-0.71981 1.71143,-1.39771 0.63637,-0.71777 0.98183,-1.45507 1.03638,-2.21191 0.55336,-0.33854 1.24997,-0.40039 2.08984,-0.18555 z"
           inkscape:connector-curvature="0" />
        <path
           id="path3866"
           style="fill:#000000;fill-opacity:1;stroke:none"
           d="m 690.73303,143.41241 c -0.17092,0.23275 -0.39472,0.47201 -0.67138,0.71778 -0.66491,0.36946 -1.16539,0.5542 -1.50147,0.5542 l -2.29858,0 c -0.82685,0 -1.44656,-0.0342 -1.85913,-0.10254 -0.34589,-0.12614 -0.78046,-0.27547 -1.30372,-0.448 -0.56723,-0.17822 -1.47991,-0.98185 -2.73803,-2.41089 -0.12534,-0.14241 -0.63885,-0.98632 -1.54053,-2.53174 -0.80079,-1.38508 -1.44126,-2.57242 -1.92139,-3.56201 -0.11475,-0.35562 -0.30437,-0.78612 -0.56884,-1.2915 -0.0204,-0.0342 -0.19574,-0.0334 -0.52613,0.002 -0.33692,0.0407 -0.67994,0.0802 -1.02905,0.11841 -0.44597,-0.0252 -1.0787,-0.0317 -1.89819,-0.0195 0.0521,1e-5 0.0867,-0.0142 0.10376,-0.0427 0.0464,0.3825 0.10822,1.90512 0.18554,4.56787 0.0122,0.47445 0.11637,1.1377 0.3125,1.98975 -10e-6,0.22461 0.0537,0.52368 0.16114,0.89722 0.20344,0.35075 0.54279,0.60709 1.01806,0.76904 0.48502,0.13997 1.06485,0.30762 1.7395,0.50293 0.0325,0.34749 0.0122,0.70272 -0.061,1.06567 -0.55177,0.22868 -1.05389,0.34302 -1.50635,0.34302 l -2.0105,0 c -0.0635,0 -0.25472,-0.0319 -0.57373,-0.0958 -0.31901,-0.0639 -0.52979,-0.0958 -0.63232,-0.0958 -0.37843,0 -0.98491,0.0319 -1.81946,0.0958 -0.83456,0.0639 -1.25183,0.0958 -1.25183,0.0958 l -1.96533,0 c -0.26123,0 -0.63436,-0.10417 -1.11939,-0.3125 0,-0.16439 -0.0159,-0.30375 -0.0476,-0.41809 -0.0317,-0.11434 -0.0476,-0.31393 -0.0476,-0.59876 0.82763,-0.22216 1.31917,-0.3719 1.47461,-0.44922 0.37923,-0.17415 0.69702,-0.4895 0.95337,-0.94604 0.0952,-0.17171 0.16642,-0.69865 0.21362,-1.58081 0,-0.18066 0.0448,-0.59 0.13428,-1.22803 0.0765,-0.58593 0.11474,-1.01643 0.11474,-1.2915 0,-1.77245 0.0189,-2.74169 0.0568,-2.90772 0.0378,-0.166 0.15319,-0.34585 0.34607,-0.53955 -0.0431,0.0252 -0.15056,-0.11799 -0.32227,-0.42968 -0.0789,-0.28483 -0.11841,-0.65877 -0.11841,-1.12183 l 0,-1.93359 c 0,0.0155 0.12288,-0.18025 0.36865,-0.58716 -0.0464,-0.11148 -0.13102,-0.92772 -0.2539,-2.44873 0.0212,0.0496 -4.1e-4,0.0338 -0.0647,-0.0476 -0.16114,-0.59487 -0.16276,-1.33421 -0.005,-2.21802 0.0464,-0.17983 -0.0383,-0.89353 -0.25391,-2.14111 -0.0122,-0.42072 -0.11434,-0.92324 -0.3064,-1.50757 -0.18961,-0.23354 -0.45491,-0.38369 -0.79589,-0.45044 -0.38331,-0.0895 -0.87199,-0.1961 -1.46607,-0.31982 0,-0.67706 0.12288,-0.93707 0.36865,-0.78003 -0.23112,-0.44269 -0.11108,-0.67747 0.36011,-0.70435 0.51921,-0.0252 1.3269,-0.0805 2.4231,-0.16601 1.11897,-0.1074 1.6988,-0.16233 1.7395,-0.1648 l 2.4707,0 c 0.44107,3e-5 0.90372,-0.0382 1.38794,-0.11475 0.4842,-0.0765 0.90901,-0.11472 1.27442,-0.11474 0.43049,2e-5 0.99811,0.0415 1.70288,0.12451 0.41665,0.0904 1.05223,0.22504 1.90674,0.40405 0.0944,0.0627 0.19977,0.11477 0.31616,0.15625 1.29148,0.20185 2.43976,0.8183 3.44482,1.84937 0.57941,0.60467 1.08397,1.63942 1.51367,3.10425 0.0146,0.2409 0.035,0.55706 0.061,0.94848 0.0276,0.34914 0.002,0.85329 -0.0769,1.51245 -0.17336,1.4079 -0.51719,2.48822 -1.03149,3.24097 -0.4411,0.6478 -1.25531,1.52223 -2.44263,2.62329 -0.004,0.0993 0.0285,0.21038 0.0977,0.33325 0.8146,1.56414 1.6223,3.11484 2.4231,4.6521 0.9391,1.64145 2.07029,3.03142 3.39355,4.16992 0.074,0.0651 0.48948,0.20346 1.24634,0.41504 0.4321,0.11557 0.78936,0.14527 1.07178,0.0891 0.55417,-0.10987 1.05873,-0.13916 1.51367,-0.0879 0.087,0.29867 0.13059,0.58798 0.13061,0.86792 z m -11.35376,-16.50634 c -10e-6,-0.36131 -0.0179,-0.58063 -0.0537,-0.65796 -0.63478,-1.68944 -1.19142,-2.85154 -1.66992,-3.48633 -0.49074,-0.39956 -1.06406,-0.67706 -1.71997,-0.83252 -0.4712,-0.11147 -1.2317,-0.14158 -2.2815,-0.0903 -0.0464,0.007 -0.10051,0.0261 -0.16235,0.0586 -0.19288,2.06382 -0.31251,3.72683 -0.35889,4.98902 0.0391,0.0619 0.10335,0.22747 0.19288,0.49682 -10e-6,0.18475 -0.0598,0.93792 -0.17945,2.25952 -0.0732,0.80649 -0.0598,1.58205 0.0403,2.32666 -0.005,-0.006 -0.0199,-0.0244 -0.0452,-0.0537 l 1.73096,0 c 0.21646,0.0513 0.43211,0.0769 0.64697,0.0769 0.65835,1e-5 1.30044,-0.21524 1.92627,-0.64576 0.6258,-0.43048 0.99893,-0.76577 1.11938,-1.00585 0.54279,-1.01155 0.8142,-2.15656 0.81421,-3.43506 z"
           inkscape:connector-curvature="0" />
      </g>
    </g>
    <path
       style="fill:none;stroke:#000000;stroke-width:0.02874744;stroke-miterlimit:4;stroke-opacity:1;stroke-dasharray:none"
       d="m 678.30666,74.273666 77.83512,0 0,53.017634 -77.83512,0 z"
       id="rect3979"
       inkscape:connector-curvature="0" />
    <path
       style="fill:none;stroke:#000000;stroke-width:0.02874748;stroke-miterlimit:4;stroke-opacity:1;stroke-dasharray:none"
       d="m 678.30666,149.06847 77.83512,0 0,53.01763 -77.83512,0 z"
       id="rect3979-1"
       inkscape:connector-curvature="0" />
    <path
       inkscape:connector-curvature="0"
       style="fill:none;stroke:#000000;stroke-width:0.02534651;stroke-miterlimit:4;stroke-opacity:1;stroke-dasharray:none"
       d="m 595.52588,70.639918 c 14.28917,0 25.89191,12.084278 25.89191,26.966492 0,14.88222 -11.60274,26.93415 -25.89191,26.93415 -14.28917,0 -25.86086,-12.05193 -25.86086,-26.93415 0,-14.882214 11.57169,-26.966492 25.86086,-26.966492 z"
       id="path19975-5" />
    <path
       inkscape:connector-curvature="0"
       style="fill:none;stroke:#000000;stroke-width:0.02534651;stroke-miterlimit:4;stroke-opacity:1;stroke-dasharray:none"
       d="m 510.8829,70.639918 c 14.28917,0 25.89191,12.084277 25.89191,26.966492 0,14.88222 -11.60274,26.93415 -25.89191,26.93415 -14.28917,0 -25.86087,-12.05193 -25.86087,-26.93415 0,-14.882215 11.5717,-26.966492 25.86087,-26.966492 z"
       id="path19975-7" />
    <path
       inkscape:connector-curvature="0"
       style="fill:none;stroke:#000000;stroke-width:0.02534651;stroke-miterlimit:4;stroke-opacity:1;stroke-dasharray:none"
       d="m 510.8829,147.54341 c 14.28917,0 25.89191,12.08428 25.89191,26.96649 0,14.88221 -11.60274,26.93415 -25.89191,26.93415 -14.28917,0 -25.86087,-12.05194 -25.86087,-26.93415 0,-14.88221 11.5717,-26.96649 25.86087,-26.96649 z"
       id="path19975-7-1" />
    <path
       style="fill:none;stroke:#000000;stroke-width:0.08858268;stroke-miterlimit:4;stroke-opacity:1"
       d="M 0.53125 1.21875 L 0.53125 60.8125 L 11.40625 60.8125 L 11.40625 60.875 C 17.231889 60.926893 21.9375 65.657522 21.9375 71.5 C 21.9375 77.374568 17.182575 82.15625 11.3125 82.15625 C 10.794662 82.15625 10.279217 82.102801 9.78125 82.03125 L 0.53125 82.03125 L 0.53125 276.65625 L 1277.2188 276.65625 L 1277.2188 1.21875 L 0.53125 1.21875 z "
       id="rect7847" />
    <path
       style="fill:#000000;fill-opacity:1;stroke:#000000;stroke-width:0.83567542px;stroke-linecap:butt;stroke-linejoin:miter;stroke-opacity:1"
       d="m 291.20244,97.604652 c 0,0 0.70265,-4.248698 -1.37315,-5.063897 -9.30398,-3.653787 -47.4974,13.586475 -66.67773,26.124855 21.1684,-11.73992 64.5845,-27.480129 68.05088,-21.060958 z"
       id="path4720"
       inkscape:connector-curvature="0"
       sodipodi:nodetypes="cscc" />
    <path
       style="fill:#000000;fill-opacity:1;stroke:#000000;stroke-width:0.83567542px;stroke-linecap:butt;stroke-linejoin:miter;stroke-opacity:1;display:inline"
       d="m 371.00951,97.604652 c 0,0 -0.70265,-4.248698 1.37315,-5.063897 9.30398,-3.653787 47.4974,13.586475 66.67773,26.124855 -21.1684,-11.73992 -64.5845,-27.480129 -68.05088,-21.060958 z"
       id="path4720-1"
       inkscape:connector-curvature="0"
       sodipodi:nodetypes="cscc" />
    <text
       xml:space="preserve"
       style="font-size:40px;font-style:normal;font-weight:normal;line-height:125%;letter-spacing:0px;word-spacing:0px;fill:#000000;fill-opacity:1;stroke:none;font-family:Sans"
       x="16.759638"
       y="262.85904"
       id="text3023"
       sodipodi:linespacing="125%"><tspan
         sodipodi:role="line"
         id="tspan3025"
         x="16.759638"
         y="262.85904"
         style="font-size:6px">Panel Rev 0.00.3</tspan></text>
    <path
       style="fill:none;stroke:#000000;stroke-width:0.025;stroke-miterlimit:4;stroke-opacity:1;stroke-dasharray:none;display:inline"
       d="m 905.42293,74.557433 c 14.38332,0 26.0625,11.6792 26.0625,26.062497 0,14.3833 -11.67918,26.0312 -26.0625,26.0312 -14.38332,0 -26.03125,-11.6479 -26.03125,-26.0312 0,-14.383297 11.64793,-26.062497 26.03125,-26.062497 z"
       id="path19975-1"
       inkscape:connector-curvature="0" />
    <path
       style="fill:#000000;fill-opacity:1;stroke:#000000;stroke-width:0.83567542px;stroke-linecap:butt;stroke-linejoin:miter;stroke-opacity:1;display:inline"
       d="m 587.33261,38.403417 c 0,0 0.70265,-4.2487 -1.37315,-5.06389 -9.30398,-3.65379 -47.4974,13.58647 -66.67773,26.12485 21.1684,-11.73992 64.5845,-27.48013 68.05088,-21.06096 z"
       id="path4720-4"
       inkscape:connector-curvature="0"
       sodipodi:nodetypes="cscc" />
    <path
       style="fill:#000000;fill-opacity:1;stroke:#000000;stroke-width:0.83567542px;stroke-linecap:butt;stroke-linejoin:miter;stroke-opacity:1;display:inline"
       d="m 793.13968,38.403417 c 0,0 -0.70265,-4.2487 1.37315,-5.06389 9.30398,-3.65379 47.4974,13.58647 66.67773,26.12485 -21.1684,-11.73992 -64.5845,-27.48013 -68.05088,-21.06096 z"
       id="path4720-1-0"
       inkscape:connector-curvature="0"
       sodipodi:nodetypes="cscc" />
    <path
       style="fill:#000000;fill-opacity:1;stroke:#000000;stroke-width:0.83567542px;stroke-linecap:butt;stroke-linejoin:miter;stroke-opacity:1;display:inline"
       d="m 582.21454,238.78213 c 0,0 0.70265,4.2487 -1.37315,5.0639 -9.30398,3.65379 -47.4974,-13.58647 -66.67774,-26.12485 21.16841,11.73992 64.58451,27.48012 68.05089,21.06095 z"
       id="path4720-9"
       inkscape:connector-curvature="0"
       sodipodi:nodetypes="cscc" />
    <path
       style="fill:#000000;fill-opacity:1;stroke:#000000;stroke-width:0.83567542px;stroke-linecap:butt;stroke-linejoin:miter;stroke-opacity:1;display:inline"
       d="m 760.02161,240.78213 c 0,0 -0.70265,4.2487 1.37315,5.0639 9.30398,3.65379 47.4974,-13.58647 66.67773,-26.12485 -21.1684,11.73992 -64.5845,27.48012 -68.05088,21.06095 z"
       id="path4720-1-4"
       inkscape:connector-curvature="0"
       sodipodi:nodetypes="cscc" />
    <text
       xml:space="preserve"
       style="font-size:40px;font-style:normal;font-variant:normal;font-weight:normal;font-stretch:normal;line-height:125%;letter-spacing:0px;word-spacing:0px;fill:#000000;fill-opacity:1;stroke:none;font-family:Ringbearer;-inkscape-font-specification:Ringbearer"
       x="898.45422"
       y="139.01808"
       id="text3099"
       sodipodi:linespacing="125%"><tspan
         sodipodi:role="line"
         id="tspan3101"
         x="898.45422"
         y="139.01808"
         style="font-size:10px;font-style:normal;font-variant:normal;font-weight:normal;font-stretch:normal;font-family:Ringbearer;-inkscape-font-specification:Ringbearer">Bed</tspan></text>
    <text
       xml:space="preserve"
       style="font-size:40px;font-style:normal;font-variant:normal;font-weight:normal;font-stretch:normal;line-height:125%;letter-spacing:0px;word-spacing:0px;fill:#000000;fill-opacity:1;stroke:none;font-family:Ringbearer;-inkscape-font-specification:Ringbearer"
       x="801.69159"
       y="139.01808"
       id="text3103"
       sodipodi:linespacing="125%"><tspan
         sodipodi:role="line"
         id="tspan3105"
         x="801.69159"
         y="139.01808"
         style="font-size:10px;font-style:normal;font-variant:normal;font-weight:normal;font-stretch:normal;font-family:Ringbearer;-inkscape-font-specification:Ringbearer">Brainwave</tspan></text>
    <text
       xml:space="preserve"
       style="font-size:40px;font-style:normal;font-variant:normal;font-weight:normal;font-stretch:normal;line-height:125%;letter-spacing:0px;word-spacing:0px;fill:#000000;fill-opacity:1;stroke:none;display:inline;font-family:Ringbearer;-inkscape-font-specification:Ringbearer"
       x="802.64624"
       y="213.95596"
       id="text3103-1"
       sodipodi:linespacing="125%"><tspan
         sodipodi:role="line"
         id="tspan3105-7"
         x="802.64624"
         y="213.95596"
         style="font-size:10px;font-style:normal;font-variant:normal;font-weight:normal;font-stretch:normal;font-family:Ringbearer;-inkscape-font-specification:Ringbearer">Neopixel</tspan></text>
    <path
       style="fill:none;stroke:#000000;stroke-width:0.00506776;stroke-miterlimit:4;stroke-opacity:1;stroke-dasharray:none;display:inline"
       d="m 192.55025,27.17704 c 2.90242,0 5.25918,2.3719 5.25918,5.3009 0,2.9289 -2.35676,5.3008 -5.25918,5.3008 -2.90243,0 -5.25288,-2.3719 -5.25288,-5.3008 0,-2.9289 2.35045,-5.3009 5.25288,-5.3009 z"
       id="path3333-4"
       inkscape:connector-curvature="0" />
    <path
       style="fill:none;stroke:#000000;stroke-width:0.00506776;stroke-miterlimit:4;stroke-opacity:1;stroke-dasharray:none;display:inline"
       d="m 1095.362,27.17704 c 2.9025,0 5.2592,2.3719 5.2592,5.3009 0,2.9289 -2.3567,5.3008 -5.2592,5.3008 -2.9024,0 -5.2529,-2.3719 -5.2529,-5.3008 0,-2.9289 2.3505,-5.3009 5.2529,-5.3009 z"
       id="path3333-4-0"
       inkscape:connector-curvature="0" />
    <path
       style="fill:none;stroke:#000000;stroke-width:0.00506776;stroke-miterlimit:4;stroke-opacity:1;stroke-dasharray:none;display:inline"
       d="m 192.55025,238.93216 c 2.90242,0 5.25918,2.3719 5.25918,5.3009 0,2.9289 -2.35676,5.3008 -5.25918,5.3008 -2.90243,0 -5.25288,-2.3719 -5.25288,-5.3008 0,-2.9289 2.35045,-5.3009 5.25288,-5.3009 z"
       id="path3333-4-9"
       inkscape:connector-curvature="0" />
    <path
       style="fill:none;stroke:#000000;stroke-width:0.00506776;stroke-miterlimit:4;stroke-opacity:1;stroke-dasharray:none;display:inline"
       d="m 1095.362,238.93216 c 2.9025,0 5.2592,2.3719 5.2592,5.3009 0,2.9289 -2.3567,5.3008 -5.2592,5.3008 -2.9024,0 -5.2529,-2.3719 -5.2529,-5.3008 0,-2.9289 2.3505,-5.3009 5.2529,-5.3009 z"
       id="path3333-4-0-4"
       inkscape:connector-curvature="0" />
    <path
       style="fill:none;stroke:#000000;stroke-width:0.02480315;stroke-miterlimit:4;stroke-opacity:1;stroke-dasharray:none;display:inline"
       d="m 665.58115,96.365193 c 2.44,0 4.4212,1.98067 4.4212,4.419937 0,2.43927 -1.9812,4.41464 -4.4212,4.41464 -2.4399,0 -4.4158,-1.97537 -4.4158,-4.41464 0,-2.439267 1.9759,-4.419937 4.4158,-4.419937 z"
       id="path19975-8"
       inkscape:connector-curvature="0" />
    <path
       style="fill:none;stroke:#000000;stroke-width:0.02480315;stroke-miterlimit:4;stroke-opacity:1;stroke-dasharray:none;display:inline"
       d="m 665.58115,171.15999 c 2.44,0 4.4212,1.98067 4.4212,4.41994 0,2.43927 -1.9812,4.41464 -4.4212,4.41464 -2.4399,0 -4.4158,-1.97537 -4.4158,-4.41464 0,-2.43927 1.9759,-4.41994 4.4158,-4.41994 z"
       id="path19975-8-2"
       inkscape:connector-curvature="0" />
    <path
       style="fill:none;stroke:#000000;stroke-width:0.02480315;stroke-miterlimit:4;stroke-opacity:1;stroke-dasharray:none;display:inline"
       d="m 772.93549,96.36519 c 2.44,0 4.4212,1.98067 4.4212,4.41994 0,2.43927 -1.9812,4.41464 -4.4212,4.41464 -2.4399,0 -4.4158,-1.97537 -4.4158,-4.41464 0,-2.43927 1.9759,-4.41994 4.4158,-4.41994 z"
       id="path19975-8-4"
       inkscape:connector-curvature="0" />
    <path
       style="fill:none;stroke:#000000;stroke-width:0.02480315;stroke-miterlimit:4;stroke-opacity:1;stroke-dasharray:none;display:inline"
       d="m 772.93549,171.15999 c 2.44,0 4.4212,1.98067 4.4212,4.41994 0,2.43927 -1.9812,4.41464 -4.4212,4.41464 -2.4399,0 -4.4158,-1.97537 -4.4158,-4.41464 0,-2.43927 1.9759,-4.41994 4.4158,-4.41994 z"
       id="path19975-8-4-5"
       inkscape:connector-curvature="0" />
  </g>
</svg>
